# MagicaVoxel @ Ephtracy

# group
o 

# material
mtllib City_Billboard.mtl
usemtl palette

# normals
vn -1 0 0
vn 1 0 0
vn 0 0 1
vn 0 0 -1
vn 0 -1 0
vn 0 1 0

# texcoords
vt 0.0136719 0.5
vt 0.0175781 0.5
vt 0.0449219 0.5
vt 0.0957031 0.5
vt 0.130859 0.5
vt 0.216797 0.5

# verts
v -1.9 0 0.1
v -1.9 0 0
v -1.9 0 -0.1
v -1.9 2.3 0.1
v -1.9 2.3 0
v -1.9 2.3 -0.1
v -1.8 2.3 0.1
v -1.8 2.3 0
v -1.8 2.3 -0.1
v -1.8 2.4 0.1
v -1.8 2.4 0
v -1.8 2.4 -0.1
v -1.2 2.5 0.5
v -1.2 2.5 0.3
v -1.2 2.6 0.5
v -1.2 2.6 0.3
v -1.1 2.3 0.2
v -1.1 2.3 0.1
v -1.1 2.4 0.3
v -1.1 2.4 0.2
v -1.1 2.4 0.1
v -1.1 2.5 0.3
v -1.1 2.5 0.2
v -1.1 2.5 0.1
v -1.1 2.6 0.5
v -1.1 2.6 0.3
v -1.1 2.6 0.2
v -1.1 2.7 0.5
v -1.1 2.7 0.3
v -0.1 2.5 0.5
v -0.1 2.5 0.3
v -0.1 2.6 0.5
v -0.1 2.6 0.3
v 0 2.3 0.2
v 0 2.3 0.1
v 0 2.4 0.3
v 0 2.4 0.2
v 0 2.4 0.1
v 0 2.5 0.3
v 0 2.5 0.2
v 0 2.5 0.1
v 0 2.6 0.5
v 0 2.6 0.3
v 0 2.6 0.2
v 0 2.7 0.5
v 0 2.7 0.3
v 0.9 2.5 0.5
v 0.9 2.5 0.3
v 0.9 2.6 0.5
v 0.9 2.6 0.3
v 1 2.3 0.2
v 1 2.3 0.1
v 1 2.4 0.3
v 1 2.4 0.2
v 1 2.4 0.1
v 1 2.5 0.3
v 1 2.5 0.2
v 1 2.5 0.1
v 1 2.6 0.5
v 1 2.6 0.3
v 1 2.6 0.2
v 1 2.7 0.5
v 1 2.7 0.3
v 1.8 0.1 0.1
v 1.8 0.1 0
v 1.8 2.2 0.1
v 1.8 2.2 0
v -1.8 0.1 0.1
v -1.8 0.1 0
v -1.8 2.2 0.1
v -1.8 2.2 0
v -1 2.3 0.2
v -1 2.3 0.1
v -1 2.4 0.3
v -1 2.4 0.2
v -1 2.4 0.1
v -1 2.5 0.3
v -1 2.5 0.2
v -1 2.5 0.1
v -1 2.6 0.5
v -1 2.6 0.3
v -1 2.6 0.2
v -1 2.7 0.5
v -1 2.7 0.3
v -0.9 2.5 0.5
v -0.9 2.5 0.3
v -0.9 2.6 0.5
v -0.9 2.6 0.3
v 0.1 2.3 0.2
v 0.1 2.3 0.1
v 0.1 2.4 0.3
v 0.1 2.4 0.2
v 0.1 2.4 0.1
v 0.1 2.5 0.3
v 0.1 2.5 0.2
v 0.1 2.5 0.1
v 0.1 2.6 0.5
v 0.1 2.6 0.3
v 0.1 2.6 0.2
v 0.1 2.7 0.5
v 0.1 2.7 0.3
v 0.2 2.5 0.5
v 0.2 2.5 0.3
v 0.2 2.6 0.5
v 0.2 2.6 0.3
v 1.1 2.3 0.2
v 1.1 2.3 0.1
v 1.1 2.4 0.3
v 1.1 2.4 0.2
v 1.1 2.4 0.1
v 1.1 2.5 0.3
v 1.1 2.5 0.2
v 1.1 2.5 0.1
v 1.1 2.6 0.5
v 1.1 2.6 0.3
v 1.1 2.6 0.2
v 1.1 2.7 0.5
v 1.1 2.7 0.3
v 1.2 2.5 0.5
v 1.2 2.5 0.3
v 1.2 2.6 0.5
v 1.2 2.6 0.3
v 1.8 2.3 0.1
v 1.8 2.3 0
v 1.8 2.3 -0.1
v 1.8 2.4 0.1
v 1.8 2.4 0
v 1.8 2.4 -0.1
v 1.9 0 0.1
v 1.9 0 0
v 1.9 0 -0.1
v 1.9 2.3 0.1
v 1.9 2.3 0
v 1.9 2.3 -0.1
v -1.2 2.5 0.5
v -1.2 2.6 0.5
v -1.1 2.6 0.5
v -1.1 2.7 0.5
v -1 2.6 0.5
v -1 2.7 0.5
v -0.9 2.5 0.5
v -0.9 2.6 0.5
v -0.1 2.5 0.5
v -0.1 2.6 0.5
v 0 2.6 0.5
v 0 2.7 0.5
v 0.1 2.6 0.5
v 0.1 2.7 0.5
v 0.2 2.5 0.5
v 0.2 2.6 0.5
v 0.9 2.5 0.5
v 0.9 2.6 0.5
v 1 2.6 0.5
v 1 2.7 0.5
v 1.1 2.6 0.5
v 1.1 2.7 0.5
v 1.2 2.5 0.5
v 1.2 2.6 0.5
v -1.1 2.4 0.3
v -1.1 2.5 0.3
v -1 2.4 0.3
v -1 2.5 0.3
v 0 2.4 0.3
v 0 2.5 0.3
v 0.1 2.4 0.3
v 0.1 2.5 0.3
v 1 2.4 0.3
v 1 2.5 0.3
v 1.1 2.4 0.3
v 1.1 2.5 0.3
v -1.1 2.3 0.2
v -1.1 2.4 0.2
v -1 2.3 0.2
v -1 2.4 0.2
v 0 2.3 0.2
v 0 2.4 0.2
v 0.1 2.3 0.2
v 0.1 2.4 0.2
v 1 2.3 0.2
v 1 2.4 0.2
v 1.1 2.3 0.2
v 1.1 2.4 0.2
v -1.9 0 0.1
v -1.9 2.3 0.1
v -1.8 0.1 0.1
v -1.8 2.2 0.1
v -1.8 2.3 0.1
v -1.8 2.4 0.1
v -1.1 2.3 0.1
v -1.1 2.4 0.1
v -1 2.3 0.1
v -1 2.4 0.1
v 0 2.3 0.1
v 0 2.4 0.1
v 0.1 2.3 0.1
v 0.1 2.4 0.1
v 1 2.3 0.1
v 1 2.4 0.1
v 1.1 2.3 0.1
v 1.1 2.4 0.1
v 1.8 0.1 0.1
v 1.8 2.2 0.1
v 1.8 2.3 0.1
v 1.8 2.4 0.1
v 1.9 0 0.1
v 1.9 2.3 0.1
v -1.8 0.1 0
v -1.8 2.2 0
v 1.8 0.1 0
v 1.8 2.2 0
v -1.2 2.5 0.3
v -1.2 2.6 0.3
v -1.1 2.5 0.3
v -1.1 2.6 0.3
v -1.1 2.7 0.3
v -1 2.5 0.3
v -1 2.6 0.3
v -1 2.7 0.3
v -0.9 2.5 0.3
v -0.9 2.6 0.3
v -0.1 2.5 0.3
v -0.1 2.6 0.3
v 0 2.5 0.3
v 0 2.6 0.3
v 0 2.7 0.3
v 0.1 2.5 0.3
v 0.1 2.6 0.3
v 0.1 2.7 0.3
v 0.2 2.5 0.3
v 0.2 2.6 0.3
v 0.9 2.5 0.3
v 0.9 2.6 0.3
v 1 2.5 0.3
v 1 2.6 0.3
v 1 2.7 0.3
v 1.1 2.5 0.3
v 1.1 2.6 0.3
v 1.1 2.7 0.3
v 1.2 2.5 0.3
v 1.2 2.6 0.3
v -1.1 2.5 0.2
v -1.1 2.6 0.2
v -1 2.5 0.2
v -1 2.6 0.2
v 0 2.5 0.2
v 0 2.6 0.2
v 0.1 2.5 0.2
v 0.1 2.6 0.2
v 1 2.5 0.2
v 1 2.6 0.2
v 1.1 2.5 0.2
v 1.1 2.6 0.2
v -1.1 2.4 0.1
v -1.1 2.5 0.1
v -1 2.4 0.1
v -1 2.5 0.1
v 0 2.4 0.1
v 0 2.5 0.1
v 0.1 2.4 0.1
v 0.1 2.5 0.1
v 1 2.4 0.1
v 1 2.5 0.1
v 1.1 2.4 0.1
v 1.1 2.5 0.1
v -1.9 0 -0.1
v -1.9 2.3 -0.1
v -1.8 0.1 -0.1
v -1.8 2.2 -0.1
v -1.8 2.3 -0.1
v -1.8 2.4 -0.1
v 1.8 0.1 -0.1
v 1.8 2.2 -0.1
v 1.8 2.3 -0.1
v 1.8 2.4 -0.1
v 1.9 0 -0.1
v 1.9 2.3 -0.1
v -1.9 0 0.1
v 1.9 0 0.1
v -1.9 0 0
v 1.9 0 0
v -1.9 0 -0.1
v 1.9 0 -0.1
v -1.8 2.2 0.1
v 1.8 2.2 0.1
v -1.8 2.2 0
v 1.8 2.2 0
v -1.1 2.3 0.2
v -1 2.3 0.2
v 0 2.3 0.2
v 0.1 2.3 0.2
v 1 2.3 0.2
v 1.1 2.3 0.2
v -1.1 2.3 0.1
v -1 2.3 0.1
v 0 2.3 0.1
v 0.1 2.3 0.1
v 1 2.3 0.1
v 1.1 2.3 0.1
v -1.1 2.4 0.3
v -1 2.4 0.3
v 0 2.4 0.3
v 0.1 2.4 0.3
v 1 2.4 0.3
v 1.1 2.4 0.3
v -1.1 2.4 0.2
v -1 2.4 0.2
v 0 2.4 0.2
v 0.1 2.4 0.2
v 1 2.4 0.2
v 1.1 2.4 0.2
v -1.2 2.5 0.5
v -0.9 2.5 0.5
v -0.1 2.5 0.5
v 0.2 2.5 0.5
v 0.9 2.5 0.5
v 1.2 2.5 0.5
v -1.1 2.5 0.4
v -1 2.5 0.4
v 0 2.5 0.4
v 0.1 2.5 0.4
v 1 2.5 0.4
v 1.1 2.5 0.4
v -1.2 2.5 0.3
v -1.1 2.5 0.3
v -1 2.5 0.3
v -0.9 2.5 0.3
v -0.1 2.5 0.3
v 0 2.5 0.3
v 0.1 2.5 0.3
v 0.2 2.5 0.3
v 0.9 2.5 0.3
v 1 2.5 0.3
v 1.1 2.5 0.3
v 1.2 2.5 0.3
v -1.8 0.1 0.1
v 1.8 0.1 0.1
v -1.8 0.1 0
v 1.8 0.1 0
v -1.9 2.3 0.1
v -1.8 2.3 0.1
v 1.8 2.3 0.1
v 1.9 2.3 0.1
v -1.9 2.3 0
v -1.8 2.3 0
v 1.8 2.3 0
v 1.9 2.3 0
v -1.9 2.3 -0.1
v -1.8 2.3 -0.1
v 1.8 2.3 -0.1
v 1.9 2.3 -0.1
v -1.8 2.4 0.1
v -1.1 2.4 0.1
v -1 2.4 0.1
v 0 2.4 0.1
v 0.1 2.4 0.1
v 1 2.4 0.1
v 1.1 2.4 0.1
v 1.8 2.4 0.1
v -1.8 2.4 0
v 1.8 2.4 0
v -1.8 2.4 -0.1
v 1.8 2.4 -0.1
v -1.1 2.5 0.2
v -1 2.5 0.2
v 0 2.5 0.2
v 0.1 2.5 0.2
v 1 2.5 0.2
v 1.1 2.5 0.2
v -1.1 2.5 0.1
v -1 2.5 0.1
v 0 2.5 0.1
v 0.1 2.5 0.1
v 1 2.5 0.1
v 1.1 2.5 0.1
v -1.2 2.6 0.5
v -1.1 2.6 0.5
v -1 2.6 0.5
v -0.9 2.6 0.5
v -0.1 2.6 0.5
v 0 2.6 0.5
v 0.1 2.6 0.5
v 0.2 2.6 0.5
v 0.9 2.6 0.5
v 1 2.6 0.5
v 1.1 2.6 0.5
v 1.2 2.6 0.5
v -1.2 2.6 0.3
v -1.1 2.6 0.3
v -1 2.6 0.3
v -0.9 2.6 0.3
v -0.1 2.6 0.3
v 0 2.6 0.3
v 0.1 2.6 0.3
v 0.2 2.6 0.3
v 0.9 2.6 0.3
v 1 2.6 0.3
v 1.1 2.6 0.3
v 1.2 2.6 0.3
v -1.1 2.6 0.2
v -1 2.6 0.2
v 0 2.6 0.2
v 0.1 2.6 0.2
v 1 2.6 0.2
v 1.1 2.6 0.2
v -1.1 2.7 0.5
v -1 2.7 0.5
v 0 2.7 0.5
v 0.1 2.7 0.5
v 1 2.7 0.5
v 1.1 2.7 0.5
v -1.1 2.7 0.3
v -1 2.7 0.3
v 0 2.7 0.3
v 0.1 2.7 0.3
v 1 2.7 0.3
v 1.1 2.7 0.3

# faces
f 4/4/1 2/4/1 1/4/1
f 5/1/1 3/1/1 2/1/1
f 5/4/1 2/4/1 4/4/1
f 6/1/1 3/1/1 5/1/1
f 10/6/1 8/6/1 7/6/1
f 11/1/1 9/1/1 8/1/1
f 11/6/1 8/6/1 10/6/1
f 12/1/1 9/1/1 11/1/1
f 15/2/1 14/2/1 13/2/1
f 16/2/1 14/2/1 15/2/1
f 20/2/1 18/2/1 17/2/1
f 21/2/1 18/2/1 20/2/1
f 22/2/1 20/2/1 19/2/1
f 22/2/1 21/2/1 20/2/1
f 23/2/1 21/2/1 22/2/1
f 24/2/1 21/2/1 23/2/1
f 26/2/1 23/2/1 22/2/1
f 27/2/1 23/2/1 26/2/1
f 28/2/1 26/2/1 25/2/1
f 29/2/1 26/2/1 28/2/1
f 32/2/1 31/2/1 30/2/1
f 33/2/1 31/2/1 32/2/1
f 37/2/1 35/2/1 34/2/1
f 38/2/1 35/2/1 37/2/1
f 39/2/1 37/2/1 36/2/1
f 39/2/1 38/2/1 37/2/1
f 40/2/1 38/2/1 39/2/1
f 41/2/1 38/2/1 40/2/1
f 43/2/1 40/2/1 39/2/1
f 44/2/1 40/2/1 43/2/1
f 45/2/1 43/2/1 42/2/1
f 46/2/1 43/2/1 45/2/1
f 49/2/1 48/2/1 47/2/1
f 50/2/1 48/2/1 49/2/1
f 54/2/1 52/2/1 51/2/1
f 55/2/1 52/2/1 54/2/1
f 56/2/1 54/2/1 53/2/1
f 56/2/1 55/2/1 54/2/1
f 57/2/1 55/2/1 56/2/1
f 58/2/1 55/2/1 57/2/1
f 60/2/1 57/2/1 56/2/1
f 61/2/1 57/2/1 60/2/1
f 62/2/1 60/2/1 59/2/1
f 63/2/1 60/2/1 62/2/1
f 66/4/1 65/4/1 64/4/1
f 67/4/1 65/4/1 66/4/1
f 68/4/2 69/4/2 70/4/2
f 70/4/2 69/4/2 71/4/2
f 72/2/2 73/2/2 75/2/2
f 75/2/2 73/2/2 76/2/2
f 74/2/2 75/2/2 77/2/2
f 75/2/2 76/2/2 77/2/2
f 77/2/2 76/2/2 78/2/2
f 78/2/2 76/2/2 79/2/2
f 77/2/2 78/2/2 81/2/2
f 81/2/2 78/2/2 82/2/2
f 80/2/2 81/2/2 83/2/2
f 83/2/2 81/2/2 84/2/2
f 85/2/2 86/2/2 87/2/2
f 87/2/2 86/2/2 88/2/2
f 89/2/2 90/2/2 92/2/2
f 92/2/2 90/2/2 93/2/2
f 91/2/2 92/2/2 94/2/2
f 92/2/2 93/2/2 94/2/2
f 94/2/2 93/2/2 95/2/2
f 95/2/2 93/2/2 96/2/2
f 94/2/2 95/2/2 98/2/2
f 98/2/2 95/2/2 99/2/2
f 97/2/2 98/2/2 100/2/2
f 100/2/2 98/2/2 101/2/2
f 102/2/2 103/2/2 104/2/2
f 104/2/2 103/2/2 105/2/2
f 106/2/2 107/2/2 109/2/2
f 109/2/2 107/2/2 110/2/2
f 108/2/2 109/2/2 111/2/2
f 109/2/2 110/2/2 111/2/2
f 111/2/2 110/2/2 112/2/2
f 112/2/2 110/2/2 113/2/2
f 111/2/2 112/2/2 115/2/2
f 115/2/2 112/2/2 116/2/2
f 114/2/2 115/2/2 117/2/2
f 117/2/2 115/2/2 118/2/2
f 119/2/2 120/2/2 121/2/2
f 121/2/2 120/2/2 122/2/2
f 123/6/2 124/6/2 126/6/2
f 124/1/2 125/1/2 127/1/2
f 126/6/2 124/6/2 127/6/2
f 127/1/2 125/1/2 128/1/2
f 129/4/2 130/4/2 132/4/2
f 130/1/2 131/1/2 133/1/2
f 132/4/2 130/4/2 133/4/2
f 133/1/2 131/1/2 134/1/2
f 137/2/3 136/2/3 135/2/3
f 139/2/3 137/2/3 135/2/3
f 139/2/3 138/2/3 137/2/3
f 140/2/3 138/2/3 139/2/3
f 141/2/3 139/2/3 135/2/3
f 142/2/3 139/2/3 141/2/3
f 145/2/3 144/2/3 143/2/3
f 147/2/3 145/2/3 143/2/3
f 147/2/3 146/2/3 145/2/3
f 148/2/3 146/2/3 147/2/3
f 149/2/3 147/2/3 143/2/3
f 150/2/3 147/2/3 149/2/3
f 153/2/3 152/2/3 151/2/3
f 155/2/3 153/2/3 151/2/3
f 155/2/3 154/2/3 153/2/3
f 156/2/3 154/2/3 155/2/3
f 157/2/3 155/2/3 151/2/3
f 158/2/3 155/2/3 157/2/3
f 161/2/3 160/2/3 159/2/3
f 162/2/3 160/2/3 161/2/3
f 165/2/3 164/2/3 163/2/3
f 166/2/3 164/2/3 165/2/3
f 169/2/3 168/2/3 167/2/3
f 170/2/3 168/2/3 169/2/3
f 173/2/3 172/2/3 171/2/3
f 174/2/3 172/2/3 173/2/3
f 177/2/3 176/2/3 175/2/3
f 178/2/3 176/2/3 177/2/3
f 181/2/3 180/2/3 179/2/3
f 182/2/3 180/2/3 181/2/3
f 185/4/3 184/4/3 183/4/3
f 186/4/3 184/4/3 185/4/3
f 187/4/3 184/4/3 186/4/3
f 189/6/3 188/6/3 187/6/3
f 189/4/3 187/4/3 186/4/3
f 190/6/3 188/6/3 189/6/3
f 191/4/3 189/4/3 186/4/3
f 193/4/3 191/4/3 186/4/3
f 193/6/3 192/6/3 191/6/3
f 194/6/3 192/6/3 193/6/3
f 195/4/3 193/4/3 186/4/3
f 197/4/3 195/4/3 186/4/3
f 197/6/3 196/6/3 195/6/3
f 198/6/3 196/6/3 197/6/3
f 199/4/3 197/4/3 186/4/3
f 201/4/3 185/4/3 183/4/3
f 202/4/3 199/4/3 186/4/3
f 203/6/3 200/6/3 199/6/3
f 203/4/3 199/4/3 202/4/3
f 204/6/3 200/6/3 203/6/3
f 205/4/3 202/4/3 201/4/3
f 205/4/3 201/4/3 183/4/3
f 205/4/3 203/4/3 202/4/3
f 206/4/3 203/4/3 205/4/3
f 209/3/3 208/3/3 207/3/3
f 210/3/3 208/3/3 209/3/3
f 211/2/4 212/2/4 213/2/4
f 213/2/4 212/2/4 214/2/4
f 214/2/4 215/2/4 217/2/4
f 217/2/4 215/2/4 218/2/4
f 216/2/4 217/2/4 219/2/4
f 219/2/4 217/2/4 220/2/4
f 221/2/4 222/2/4 223/2/4
f 223/2/4 222/2/4 224/2/4
f 224/2/4 225/2/4 227/2/4
f 227/2/4 225/2/4 228/2/4
f 226/2/4 227/2/4 229/2/4
f 229/2/4 227/2/4 230/2/4
f 231/2/4 232/2/4 233/2/4
f 233/2/4 232/2/4 234/2/4
f 234/2/4 235/2/4 237/2/4
f 237/2/4 235/2/4 238/2/4
f 236/2/4 237/2/4 239/2/4
f 239/2/4 237/2/4 240/2/4
f 241/2/4 242/2/4 243/2/4
f 243/2/4 242/2/4 244/2/4
f 245/2/4 246/2/4 247/2/4
f 247/2/4 246/2/4 248/2/4
f 249/2/4 250/2/4 251/2/4
f 251/2/4 250/2/4 252/2/4
f 253/2/4 254/2/4 255/2/4
f 255/2/4 254/2/4 256/2/4
f 257/2/4 258/2/4 259/2/4
f 259/2/4 258/2/4 260/2/4
f 261/2/4 262/2/4 263/2/4
f 263/2/4 262/2/4 264/2/4
f 265/1/4 266/1/4 267/1/4
f 267/1/4 266/1/4 268/1/4
f 268/1/4 266/1/4 269/1/4
f 265/1/4 267/1/4 271/1/4
f 267/3/4 268/3/4 271/3/4
f 269/1/4 270/1/4 272/1/4
f 271/3/4 268/3/4 272/3/4
f 268/1/4 269/1/4 272/1/4
f 272/1/4 270/1/4 273/1/4
f 273/1/4 270/1/4 274/1/4
f 265/1/4 271/1/4 275/1/4
f 271/1/4 272/1/4 275/1/4
f 272/1/4 273/1/4 275/1/4
f 275/1/4 273/1/4 276/1/4
f 279/4/5 278/4/5 277/4/5
f 280/4/5 278/4/5 279/4/5
f 281/1/5 280/1/5 279/1/5
f 282/1/5 280/1/5 281/1/5
f 285/4/5 284/4/5 283/4/5
f 286/4/5 284/4/5 285/4/5
f 293/2/5 288/2/5 287/2/5
f 294/2/5 288/2/5 293/2/5
f 295/2/5 290/2/5 289/2/5
f 296/2/5 290/2/5 295/2/5
f 297/2/5 292/2/5 291/2/5
f 298/2/5 292/2/5 297/2/5
f 305/2/5 300/2/5 299/2/5
f 306/2/5 300/2/5 305/2/5
f 307/2/5 302/2/5 301/2/5
f 308/2/5 302/2/5 307/2/5
f 309/2/5 304/2/5 303/2/5
f 310/2/5 304/2/5 309/2/5
f 317/2/5 312/2/5 311/2/5
f 318/2/5 312/2/5 317/2/5
f 319/2/5 314/2/5 313/2/5
f 320/2/5 314/2/5 319/2/5
f 321/2/5 316/2/5 315/2/5
f 322/2/5 316/2/5 321/2/5
f 323/2/5 317/2/5 311/2/5
f 324/5/5 318/5/5 317/5/5
f 324/2/5 317/2/5 323/2/5
f 325/2/5 312/2/5 318/2/5
f 325/5/5 318/5/5 324/5/5
f 326/2/5 312/2/5 325/2/5
f 327/2/5 319/2/5 313/2/5
f 328/5/5 320/5/5 319/5/5
f 328/2/5 319/2/5 327/2/5
f 329/2/5 314/2/5 320/2/5
f 329/5/5 320/5/5 328/5/5
f 330/2/5 314/2/5 329/2/5
f 331/2/5 321/2/5 315/2/5
f 332/5/5 322/5/5 321/5/5
f 332/2/5 321/2/5 331/2/5
f 333/2/5 316/2/5 322/2/5
f 333/5/5 322/5/5 332/5/5
f 334/2/5 316/2/5 333/2/5
f 335/4/6 336/4/6 337/4/6
f 337/4/6 336/4/6 338/4/6
f 339/4/6 340/4/6 343/4/6
f 343/4/6 340/4/6 344/4/6
f 341/4/6 342/4/6 345/4/6
f 345/4/6 342/4/6 346/4/6
f 343/1/6 344/1/6 347/1/6
f 347/1/6 344/1/6 348/1/6
f 345/1/6 346/1/6 349/1/6
f 349/1/6 346/1/6 350/1/6
f 351/6/6 352/6/6 359/6/6
f 357/6/6 358/6/6 359/6/6
f 356/6/6 357/6/6 359/6/6
f 355/6/6 356/6/6 359/6/6
f 354/6/6 355/6/6 359/6/6
f 353/6/6 354/6/6 359/6/6
f 352/6/6 353/6/6 359/6/6
f 359/6/6 358/6/6 360/6/6
f 359/1/6 360/1/6 361/1/6
f 361/1/6 360/1/6 362/1/6
f 363/2/6 364/2/6 369/2/6
f 369/2/6 364/2/6 370/2/6
f 365/2/6 366/2/6 371/2/6
f 371/2/6 366/2/6 372/2/6
f 367/2/6 368/2/6 373/2/6
f 373/2/6 368/2/6 374/2/6
f 375/2/6 376/2/6 387/2/6
f 387/2/6 376/2/6 388/2/6
f 377/2/6 378/2/6 389/2/6
f 389/2/6 378/2/6 390/2/6
f 379/2/6 380/2/6 391/2/6
f 391/2/6 380/2/6 392/2/6
f 381/2/6 382/2/6 393/2/6
f 393/2/6 382/2/6 394/2/6
f 383/2/6 384/2/6 395/2/6
f 395/2/6 384/2/6 396/2/6
f 385/2/6 386/2/6 397/2/6
f 397/2/6 386/2/6 398/2/6
f 388/2/6 389/2/6 399/2/6
f 399/2/6 389/2/6 400/2/6
f 392/2/6 393/2/6 401/2/6
f 401/2/6 393/2/6 402/2/6
f 396/2/6 397/2/6 403/2/6
f 403/2/6 397/2/6 404/2/6
f 405/2/6 406/2/6 411/2/6
f 411/2/6 406/2/6 412/2/6
f 407/2/6 408/2/6 413/2/6
f 413/2/6 408/2/6 414/2/6
f 409/2/6 410/2/6 415/2/6
f 415/2/6 410/2/6 416/2/6
