# MagicaVoxel @ Ephtracy

# group
o 

# material
mtllib Level_2_Apartments_Blue.vox-0.mtl
usemtl palette

# normals
vn -1 0 0
vn 1 0 0
vn 0 0 1
vn 0 0 -1
vn 0 -1 0
vn 0 1 0

# texcoords
vt 0.00195312 0.5
vt 0.00976562 0.5
vt 0.0136719 0.5
vt 0.0175781 0.5
vt 0.193359 0.5
vt 0.201172 0.5

# verts
v 8.8 0 7.9
v 8.8 0 5.7
v 8.8 3.5 7.9
v 8.8 3.5 5.7
v 9 3.5 6.4
v 9 3.5 5.9
v 9 3.6 6.4
v 9 3.6 5.9
v 9.1 3.6 6.4
v 9.1 3.6 6
v 9.1 3.7 6.4
v 9.1 3.7 6
v 9.3 0.9 7.9
v 9.3 0.9 7.8
v 9.3 1.3 7.9
v 9.3 1.3 7.8
v 9.3 1.6 7.9
v 9.3 1.6 7.8
v 9.3 2 7.9
v 9.3 2 7.8
v 9.3 2.3 7.9
v 9.3 2.3 7.8
v 9.3 2.7 7.9
v 9.3 2.7 7.8
v 9.3 3 7.9
v 9.3 3 7.8
v 9.3 3.4 7.9
v 9.3 3.4 7.8
v 9.4 3.7 6.4
v 9.4 3.7 6.3
v 9.4 4 6.4
v 9.4 4 6.3
v 9.8 0.9 7.9
v 9.8 0.9 7.8
v 9.8 1.3 7.9
v 9.8 1.3 7.8
v 9.8 1.6 7.9
v 9.8 1.6 7.8
v 9.8 2 7.9
v 9.8 2 7.8
v 9.8 2.3 7.9
v 9.8 2.3 7.8
v 9.8 2.7 7.9
v 9.8 2.7 7.8
v 9.8 3 7.9
v 9.8 3 7.8
v 9.8 3.4 7.9
v 9.8 3.4 7.8
v 10.3 0.9 7.9
v 10.3 0.9 7.8
v 10.3 1.3 7.9
v 10.3 1.3 7.8
v 10.3 1.6 7.9
v 10.3 1.6 7.8
v 10.3 2 7.9
v 10.3 2 7.8
v 10.3 2.3 7.9
v 10.3 2.3 7.8
v 10.3 2.7 7.9
v 10.3 2.7 7.8
v 10.3 3 7.9
v 10.3 3 7.8
v 10.3 3.4 7.9
v 10.3 3.4 7.8
v 10.4 0 7.9
v 10.4 0 7.8
v 10.4 0.5 7.9
v 10.4 0.5 7.8
v 10.7 3.5 7.7
v 10.7 3.5 7
v 10.7 3.6 7.7
v 10.7 3.6 7.6
v 10.7 3.8 7.6
v 10.7 3.8 7.1
v 10.7 3.8 7
v 10.7 4 7.1
v 10.7 4 7
v 10.8 0.9 7.9
v 10.8 0.9 7.8
v 10.8 1.3 7.9
v 10.8 1.3 7.8
v 10.8 1.6 7.9
v 10.8 1.6 7.8
v 10.8 2 7.9
v 10.8 2 7.8
v 10.8 2.3 7.9
v 10.8 2.3 7.8
v 10.8 2.7 7.9
v 10.8 2.7 7.8
v 10.8 3 7.9
v 10.8 3 7.8
v 10.8 3.4 7.9
v 10.8 3.4 7.8
v 11.3 0.9 7.9
v 11.3 0.9 7.8
v 11.3 1.3 7.9
v 11.3 1.3 7.8
v 11.3 1.6 7.9
v 11.3 1.6 7.8
v 11.3 2 7.9
v 11.3 2 7.8
v 11.3 2.3 7.9
v 11.3 2.3 7.8
v 11.3 2.7 7.9
v 11.3 2.7 7.8
v 11.3 3 7.9
v 11.3 3 7.8
v 11.3 3.4 7.9
v 11.3 3.4 7.8
v 9 0.9 7.9
v 9 0.9 7.8
v 9 1.3 7.9
v 9 1.3 7.8
v 9 1.6 7.9
v 9 1.6 7.8
v 9 2 7.9
v 9 2 7.8
v 9 2.3 7.9
v 9 2.3 7.8
v 9 2.7 7.9
v 9 2.7 7.8
v 9 3 7.9
v 9 3 7.8
v 9 3.4 7.9
v 9 3.4 7.8
v 9.5 0.9 7.9
v 9.5 0.9 7.8
v 9.5 1.3 7.9
v 9.5 1.3 7.8
v 9.5 1.6 7.9
v 9.5 1.6 7.8
v 9.5 2 7.9
v 9.5 2 7.8
v 9.5 2.3 7.9
v 9.5 2.3 7.8
v 9.5 2.7 7.9
v 9.5 2.7 7.8
v 9.5 3 7.9
v 9.5 3 7.8
v 9.5 3.4 7.9
v 9.5 3.4 7.8
v 9.5 3.5 6.4
v 9.5 3.5 5.9
v 9.5 3.6 6
v 9.5 3.6 5.9
v 9.5 3.7 6.4
v 9.5 3.7 6.3
v 9.5 3.7 6
v 9.5 4 6.4
v 9.5 4 6.3
v 10 0 7.9
v 10 0 7.8
v 10 0.5 7.9
v 10 0.5 7.8
v 10 0.9 7.9
v 10 0.9 7.8
v 10 1.3 7.9
v 10 1.3 7.8
v 10 1.6 7.9
v 10 1.6 7.8
v 10 2 7.9
v 10 2 7.8
v 10 2.3 7.9
v 10 2.3 7.8
v 10 2.7 7.9
v 10 2.7 7.8
v 10 3 7.9
v 10 3 7.8
v 10 3.4 7.9
v 10 3.4 7.8
v 10.5 0.9 7.9
v 10.5 0.9 7.8
v 10.5 1.3 7.9
v 10.5 1.3 7.8
v 10.5 1.6 7.9
v 10.5 1.6 7.8
v 10.5 2 7.9
v 10.5 2 7.8
v 10.5 2.3 7.9
v 10.5 2.3 7.8
v 10.5 2.7 7.9
v 10.5 2.7 7.8
v 10.5 3 7.9
v 10.5 3 7.8
v 10.5 3.4 7.9
v 10.5 3.4 7.8
v 10.8 3.8 7.1
v 10.8 3.8 7
v 10.8 4 7.1
v 10.8 4 7
v 11 0.9 7.9
v 11 0.9 7.8
v 11 1.3 7.9
v 11 1.3 7.8
v 11 1.6 7.9
v 11 1.6 7.8
v 11 2 7.9
v 11 2 7.8
v 11 2.3 7.9
v 11 2.3 7.8
v 11 2.7 7.9
v 11 2.7 7.8
v 11 3 7.9
v 11 3 7.8
v 11 3.4 7.9
v 11 3.4 7.8
v 11 3.7 7.6
v 11 3.7 7
v 11 3.8 7.6
v 11 3.8 7
v 11.1 3.6 7.6
v 11.1 3.6 7
v 11.1 3.7 7.6
v 11.1 3.7 7
v 11.3 3.5 7.7
v 11.3 3.5 7
v 11.3 3.6 7.7
v 11.3 3.6 7
v 11.5 0 7.9
v 11.5 0 5.7
v 11.5 3.5 7.9
v 11.5 3.5 5.7
v 8.8 0 7.9
v 8.8 3.5 7.9
v 9 0.9 7.9
v 9 1.3 7.9
v 9 1.6 7.9
v 9 2 7.9
v 9 2.3 7.9
v 9 2.7 7.9
v 9 3 7.9
v 9 3.4 7.9
v 9.3 0.9 7.9
v 9.3 1.3 7.9
v 9.3 1.6 7.9
v 9.3 2 7.9
v 9.3 2.3 7.9
v 9.3 2.7 7.9
v 9.3 3 7.9
v 9.3 3.4 7.9
v 9.5 0.9 7.9
v 9.5 1.3 7.9
v 9.5 1.6 7.9
v 9.5 2 7.9
v 9.5 2.3 7.9
v 9.5 2.7 7.9
v 9.5 3 7.9
v 9.5 3.4 7.9
v 9.8 0.9 7.9
v 9.8 1.3 7.9
v 9.8 1.6 7.9
v 9.8 2 7.9
v 9.8 2.3 7.9
v 9.8 2.7 7.9
v 9.8 3 7.9
v 9.8 3.4 7.9
v 10 0 7.9
v 10 0.5 7.9
v 10 0.9 7.9
v 10 1.3 7.9
v 10 1.6 7.9
v 10 2 7.9
v 10 2.3 7.9
v 10 2.7 7.9
v 10 3 7.9
v 10 3.4 7.9
v 10.3 0.9 7.9
v 10.3 1.3 7.9
v 10.3 1.6 7.9
v 10.3 2 7.9
v 10.3 2.3 7.9
v 10.3 2.7 7.9
v 10.3 3 7.9
v 10.3 3.4 7.9
v 10.4 0 7.9
v 10.4 0.5 7.9
v 10.5 0.9 7.9
v 10.5 1.3 7.9
v 10.5 1.6 7.9
v 10.5 2 7.9
v 10.5 2.3 7.9
v 10.5 2.7 7.9
v 10.5 3 7.9
v 10.5 3.4 7.9
v 10.8 0.9 7.9
v 10.8 1.3 7.9
v 10.8 1.6 7.9
v 10.8 2 7.9
v 10.8 2.3 7.9
v 10.8 2.7 7.9
v 10.8 3 7.9
v 10.8 3.4 7.9
v 11 0.9 7.9
v 11 1.3 7.9
v 11 1.6 7.9
v 11 2 7.9
v 11 2.3 7.9
v 11 2.7 7.9
v 11 3 7.9
v 11 3.4 7.9
v 11.3 0.9 7.9
v 11.3 1.3 7.9
v 11.3 1.6 7.9
v 11.3 2 7.9
v 11.3 2.3 7.9
v 11.3 2.7 7.9
v 11.3 3 7.9
v 11.3 3.4 7.9
v 11.5 0 7.9
v 11.5 3.5 7.9
v 9 0.9 7.8
v 9 1.3 7.8
v 9 1.6 7.8
v 9 2 7.8
v 9 2.3 7.8
v 9 2.7 7.8
v 9 3 7.8
v 9 3.4 7.8
v 9.3 0.9 7.8
v 9.3 1.3 7.8
v 9.3 1.6 7.8
v 9.3 2 7.8
v 9.3 2.3 7.8
v 9.3 2.7 7.8
v 9.3 3 7.8
v 9.3 3.4 7.8
v 9.5 0.9 7.8
v 9.5 1.3 7.8
v 9.5 1.6 7.8
v 9.5 2 7.8
v 9.5 2.3 7.8
v 9.5 2.7 7.8
v 9.5 3 7.8
v 9.5 3.4 7.8
v 9.8 0.9 7.8
v 9.8 1.3 7.8
v 9.8 1.6 7.8
v 9.8 2 7.8
v 9.8 2.3 7.8
v 9.8 2.7 7.8
v 9.8 3 7.8
v 9.8 3.4 7.8
v 10 0 7.8
v 10 0.5 7.8
v 10 0.9 7.8
v 10 1.3 7.8
v 10 1.6 7.8
v 10 2 7.8
v 10 2.3 7.8
v 10 2.7 7.8
v 10 3 7.8
v 10 3.4 7.8
v 10.3 0.9 7.8
v 10.3 1.3 7.8
v 10.3 1.6 7.8
v 10.3 2 7.8
v 10.3 2.3 7.8
v 10.3 2.7 7.8
v 10.3 3 7.8
v 10.3 3.4 7.8
v 10.4 0 7.8
v 10.4 0.5 7.8
v 10.5 0.9 7.8
v 10.5 1.3 7.8
v 10.5 1.6 7.8
v 10.5 2 7.8
v 10.5 2.3 7.8
v 10.5 2.7 7.8
v 10.5 3 7.8
v 10.5 3.4 7.8
v 10.8 0.9 7.8
v 10.8 1.3 7.8
v 10.8 1.6 7.8
v 10.8 2 7.8
v 10.8 2.3 7.8
v 10.8 2.7 7.8
v 10.8 3 7.8
v 10.8 3.4 7.8
v 11 0.9 7.8
v 11 1.3 7.8
v 11 1.6 7.8
v 11 2 7.8
v 11 2.3 7.8
v 11 2.7 7.8
v 11 3 7.8
v 11 3.4 7.8
v 11.3 0.9 7.8
v 11.3 1.3 7.8
v 11.3 1.6 7.8
v 11.3 2 7.8
v 11.3 2.3 7.8
v 11.3 2.7 7.8
v 11.3 3 7.8
v 11.3 3.4 7.8
v 10.7 3.5 7.7
v 10.7 3.6 7.7
v 11.3 3.5 7.7
v 11.3 3.6 7.7
v 10.7 3.6 7.6
v 10.7 3.8 7.6
v 11 3.7 7.6
v 11 3.8 7.6
v 11.1 3.6 7.6
v 11.1 3.7 7.6
v 10.7 3.8 7.1
v 10.7 4 7.1
v 10.8 3.8 7.1
v 10.8 4 7.1
v 9 3.5 6.4
v 9 3.6 6.4
v 9.1 3.6 6.4
v 9.1 3.7 6.4
v 9.4 3.7 6.4
v 9.4 4 6.4
v 9.5 3.5 6.4
v 9.5 3.7 6.4
v 9.5 4 6.4
v 10.7 3.5 7
v 10.7 3.8 7
v 10.7 4 7
v 10.8 3.8 7
v 10.8 4 7
v 11 3.7 7
v 11 3.8 7
v 11.1 3.6 7
v 11.1 3.7 7
v 11.3 3.5 7
v 11.3 3.6 7
v 9.4 3.7 6.3
v 9.4 4 6.3
v 9.5 3.7 6.3
v 9.5 4 6.3
v 9.1 3.6 6
v 9.1 3.7 6
v 9.5 3.6 6
v 9.5 3.7 6
v 9 3.5 5.9
v 9 3.6 5.9
v 9.5 3.5 5.9
v 9.5 3.6 5.9
v 8.8 0 5.7
v 8.8 3.5 5.7
v 11.5 0 5.7
v 11.5 3.5 5.7
v 8.8 0 7.9
v 10 0 7.9
v 10.4 0 7.9
v 11.5 0 7.9
v 10 0 7.8
v 10.4 0 7.8
v 10 0 7.7
v 10.4 0 7.7
v 8.8 0 5.7
v 11.5 0 5.7
v 10 0.5 7.9
v 10.4 0.5 7.9
v 10 0.5 7.8
v 10.4 0.5 7.8
v 9 1.3 7.9
v 9.3 1.3 7.9
v 9.5 1.3 7.9
v 9.8 1.3 7.9
v 10 1.3 7.9
v 10.3 1.3 7.9
v 10.5 1.3 7.9
v 10.8 1.3 7.9
v 11 1.3 7.9
v 11.3 1.3 7.9
v 9 1.3 7.8
v 9.3 1.3 7.8
v 9.5 1.3 7.8
v 9.8 1.3 7.8
v 10 1.3 7.8
v 10.3 1.3 7.8
v 10.5 1.3 7.8
v 10.8 1.3 7.8
v 11 1.3 7.8
v 11.3 1.3 7.8
v 9 2 7.9
v 9.3 2 7.9
v 9.5 2 7.9
v 9.8 2 7.9
v 10 2 7.9
v 10.3 2 7.9
v 10.5 2 7.9
v 10.8 2 7.9
v 11 2 7.9
v 11.3 2 7.9
v 9 2 7.8
v 9.3 2 7.8
v 9.5 2 7.8
v 9.8 2 7.8
v 10 2 7.8
v 10.3 2 7.8
v 10.5 2 7.8
v 10.8 2 7.8
v 11 2 7.8
v 11.3 2 7.8
v 9 2.7 7.9
v 9.3 2.7 7.9
v 9.5 2.7 7.9
v 9.8 2.7 7.9
v 10 2.7 7.9
v 10.3 2.7 7.9
v 10.5 2.7 7.9
v 10.8 2.7 7.9
v 11 2.7 7.9
v 11.3 2.7 7.9
v 9 2.7 7.8
v 9.3 2.7 7.8
v 9.5 2.7 7.8
v 9.8 2.7 7.8
v 10 2.7 7.8
v 10.3 2.7 7.8
v 10.5 2.7 7.8
v 10.8 2.7 7.8
v 11 2.7 7.8
v 11.3 2.7 7.8
v 9 3.4 7.9
v 9.3 3.4 7.9
v 9.5 3.4 7.9
v 9.8 3.4 7.9
v 10 3.4 7.9
v 10.3 3.4 7.9
v 10.5 3.4 7.9
v 10.8 3.4 7.9
v 11 3.4 7.9
v 11.3 3.4 7.9
v 9 3.4 7.8
v 9.3 3.4 7.8
v 9.5 3.4 7.8
v 9.8 3.4 7.8
v 10 3.4 7.8
v 10.3 3.4 7.8
v 10.5 3.4 7.8
v 10.8 3.4 7.8
v 11 3.4 7.8
v 11.3 3.4 7.8
v 9 0.9 7.9
v 9.3 0.9 7.9
v 9.5 0.9 7.9
v 9.8 0.9 7.9
v 10 0.9 7.9
v 10.3 0.9 7.9
v 10.5 0.9 7.9
v 10.8 0.9 7.9
v 11 0.9 7.9
v 11.3 0.9 7.9
v 9 0.9 7.8
v 9.3 0.9 7.8
v 9.5 0.9 7.8
v 9.8 0.9 7.8
v 10 0.9 7.8
v 10.3 0.9 7.8
v 10.5 0.9 7.8
v 10.8 0.9 7.8
v 11 0.9 7.8
v 11.3 0.9 7.8
v 9 1.6 7.9
v 9.3 1.6 7.9
v 9.5 1.6 7.9
v 9.8 1.6 7.9
v 10 1.6 7.9
v 10.3 1.6 7.9
v 10.5 1.6 7.9
v 10.8 1.6 7.9
v 11 1.6 7.9
v 11.3 1.6 7.9
v 9 1.6 7.8
v 9.3 1.6 7.8
v 9.5 1.6 7.8
v 9.8 1.6 7.8
v 10 1.6 7.8
v 10.3 1.6 7.8
v 10.5 1.6 7.8
v 10.8 1.6 7.8
v 11 1.6 7.8
v 11.3 1.6 7.8
v 9 2.3 7.9
v 9.3 2.3 7.9
v 9.5 2.3 7.9
v 9.8 2.3 7.9
v 10 2.3 7.9
v 10.3 2.3 7.9
v 10.5 2.3 7.9
v 10.8 2.3 7.9
v 11 2.3 7.9
v 11.3 2.3 7.9
v 9 2.3 7.8
v 9.3 2.3 7.8
v 9.5 2.3 7.8
v 9.8 2.3 7.8
v 10 2.3 7.8
v 10.3 2.3 7.8
v 10.5 2.3 7.8
v 10.8 2.3 7.8
v 11 2.3 7.8
v 11.3 2.3 7.8
v 9 3 7.9
v 9.3 3 7.9
v 9.5 3 7.9
v 9.8 3 7.9
v 10 3 7.9
v 10.3 3 7.9
v 10.5 3 7.9
v 10.8 3 7.9
v 11 3 7.9
v 11.3 3 7.9
v 9 3 7.8
v 9.3 3 7.8
v 9.5 3 7.8
v 9.8 3 7.8
v 10 3 7.8
v 10.3 3 7.8
v 10.5 3 7.8
v 10.8 3 7.8
v 11 3 7.8
v 11.3 3 7.8
v 8.8 3.5 7.9
v 11.5 3.5 7.9
v 8.9 3.5 7.8
v 11.4 3.5 7.8
v 10.7 3.5 7.7
v 11.3 3.5 7.7
v 10.7 3.5 7
v 11.3 3.5 7
v 9 3.5 6.4
v 9.5 3.5 6.4
v 9 3.5 5.9
v 9.5 3.5 5.9
v 8.9 3.5 5.8
v 11.4 3.5 5.8
v 8.8 3.5 5.7
v 11.5 3.5 5.7
v 10.7 3.6 7.7
v 11.3 3.6 7.7
v 10.7 3.6 7.6
v 11.1 3.6 7.6
v 11.1 3.6 7
v 11.3 3.6 7
v 9 3.6 6.4
v 9.1 3.6 6.4
v 9.1 3.6 6
v 9.5 3.6 6
v 9 3.6 5.9
v 9.5 3.6 5.9
v 11 3.7 7.6
v 11.1 3.7 7.6
v 11 3.7 7
v 11.1 3.7 7
v 9.1 3.7 6.4
v 9.4 3.7 6.4
v 9.4 3.7 6.3
v 9.5 3.7 6.3
v 9.1 3.7 6
v 9.5 3.7 6
v 10.7 3.8 7.6
v 11 3.8 7.6
v 10.7 3.8 7.1
v 10.8 3.8 7.1
v 10.8 3.8 7
v 11 3.8 7
v 10.7 4 7.1
v 10.8 4 7.1
v 10.7 4 7
v 10.8 4 7
v 9.4 4 6.4
v 9.5 4 6.4
v 9.4 4 6.3
v 9.5 4 6.3

# faces
f 3/6/1 2/6/1 1/6/1
f 4/6/1 2/6/1 3/6/1
f 7/4/1 6/4/1 5/4/1
f 8/4/1 6/4/1 7/4/1
f 11/4/1 10/4/1 9/4/1
f 12/4/1 10/4/1 11/4/1
f 15/6/1 14/6/1 13/6/1
f 16/6/1 14/6/1 15/6/1
f 19/6/1 18/6/1 17/6/1
f 20/6/1 18/6/1 19/6/1
f 23/6/1 22/6/1 21/6/1
f 24/6/1 22/6/1 23/6/1
f 27/6/1 26/6/1 25/6/1
f 28/6/1 26/6/1 27/6/1
f 31/1/1 30/1/1 29/1/1
f 32/1/1 30/1/1 31/1/1
f 35/6/1 34/6/1 33/6/1
f 36/6/1 34/6/1 35/6/1
f 39/6/1 38/6/1 37/6/1
f 40/6/1 38/6/1 39/6/1
f 43/6/1 42/6/1 41/6/1
f 44/6/1 42/6/1 43/6/1
f 47/6/1 46/6/1 45/6/1
f 48/6/1 46/6/1 47/6/1
f 51/6/1 50/6/1 49/6/1
f 52/6/1 50/6/1 51/6/1
f 55/6/1 54/6/1 53/6/1
f 56/6/1 54/6/1 55/6/1
f 59/6/1 58/6/1 57/6/1
f 60/6/1 58/6/1 59/6/1
f 63/6/1 62/6/1 61/6/1
f 64/6/1 62/6/1 63/6/1
f 67/6/1 66/6/1 65/6/1
f 68/6/1 66/6/1 67/6/1
f 71/4/1 70/4/1 69/4/1
f 72/4/1 70/4/1 71/4/1
f 73/4/1 70/4/1 72/4/1
f 74/4/1 70/4/1 73/4/1
f 75/4/1 70/4/1 74/4/1
f 76/1/1 75/1/1 74/1/1
f 77/1/1 75/1/1 76/1/1
f 80/6/1 79/6/1 78/6/1
f 81/6/1 79/6/1 80/6/1
f 84/6/1 83/6/1 82/6/1
f 85/6/1 83/6/1 84/6/1
f 88/6/1 87/6/1 86/6/1
f 89/6/1 87/6/1 88/6/1
f 92/6/1 91/6/1 90/6/1
f 93/6/1 91/6/1 92/6/1
f 96/6/1 95/6/1 94/6/1
f 97/6/1 95/6/1 96/6/1
f 100/6/1 99/6/1 98/6/1
f 101/6/1 99/6/1 100/6/1
f 104/6/1 103/6/1 102/6/1
f 105/6/1 103/6/1 104/6/1
f 108/6/1 107/6/1 106/6/1
f 109/6/1 107/6/1 108/6/1
f 110/6/2 111/6/2 112/6/2
f 112/6/2 111/6/2 113/6/2
f 114/6/2 115/6/2 116/6/2
f 116/6/2 115/6/2 117/6/2
f 118/6/2 119/6/2 120/6/2
f 120/6/2 119/6/2 121/6/2
f 122/6/2 123/6/2 124/6/2
f 124/6/2 123/6/2 125/6/2
f 126/6/2 127/6/2 128/6/2
f 128/6/2 127/6/2 129/6/2
f 130/6/2 131/6/2 132/6/2
f 132/6/2 131/6/2 133/6/2
f 134/6/2 135/6/2 136/6/2
f 136/6/2 135/6/2 137/6/2
f 138/6/2 139/6/2 140/6/2
f 140/6/2 139/6/2 141/6/2
f 142/4/2 143/4/2 144/4/2
f 144/4/2 143/4/2 145/4/2
f 142/4/2 144/4/2 146/4/2
f 146/4/2 144/4/2 147/4/2
f 147/4/2 144/4/2 148/4/2
f 146/1/2 147/1/2 149/1/2
f 149/1/2 147/1/2 150/1/2
f 151/6/2 152/6/2 153/6/2
f 153/6/2 152/6/2 154/6/2
f 155/6/2 156/6/2 157/6/2
f 157/6/2 156/6/2 158/6/2
f 159/6/2 160/6/2 161/6/2
f 161/6/2 160/6/2 162/6/2
f 163/6/2 164/6/2 165/6/2
f 165/6/2 164/6/2 166/6/2
f 167/6/2 168/6/2 169/6/2
f 169/6/2 168/6/2 170/6/2
f 171/6/2 172/6/2 173/6/2
f 173/6/2 172/6/2 174/6/2
f 175/6/2 176/6/2 177/6/2
f 177/6/2 176/6/2 178/6/2
f 179/6/2 180/6/2 181/6/2
f 181/6/2 180/6/2 182/6/2
f 183/6/2 184/6/2 185/6/2
f 185/6/2 184/6/2 186/6/2
f 187/1/2 188/1/2 189/1/2
f 189/1/2 188/1/2 190/1/2
f 191/6/2 192/6/2 193/6/2
f 193/6/2 192/6/2 194/6/2
f 195/6/2 196/6/2 197/6/2
f 197/6/2 196/6/2 198/6/2
f 199/6/2 200/6/2 201/6/2
f 201/6/2 200/6/2 202/6/2
f 203/6/2 204/6/2 205/6/2
f 205/6/2 204/6/2 206/6/2
f 207/4/2 208/4/2 209/4/2
f 209/4/2 208/4/2 210/4/2
f 211/4/2 212/4/2 213/4/2
f 213/4/2 212/4/2 214/4/2
f 215/4/2 216/4/2 217/4/2
f 217/4/2 216/4/2 218/4/2
f 219/6/2 220/6/2 221/6/2
f 221/6/2 220/6/2 222/6/2
f 225/6/3 224/6/3 223/6/3
f 226/6/3 224/6/3 225/6/3
f 227/6/3 224/6/3 226/6/3
f 228/6/3 224/6/3 227/6/3
f 229/6/3 224/6/3 228/6/3
f 230/6/3 224/6/3 229/6/3
f 231/6/3 224/6/3 230/6/3
f 232/6/3 224/6/3 231/6/3
f 233/6/3 225/6/3 223/6/3
f 234/6/3 227/6/3 226/6/3
f 235/6/3 227/6/3 234/6/3
f 236/6/3 229/6/3 228/6/3
f 237/6/3 229/6/3 236/6/3
f 238/6/3 231/6/3 230/6/3
f 239/6/3 231/6/3 238/6/3
f 240/6/3 224/6/3 232/6/3
f 241/6/3 239/6/3 238/6/3
f 241/6/3 240/6/3 239/6/3
f 241/6/3 237/6/3 236/6/3
f 241/6/3 233/6/3 223/6/3
f 241/6/3 238/6/3 237/6/3
f 241/6/3 235/6/3 234/6/3
f 241/6/3 236/6/3 235/6/3
f 241/6/3 234/6/3 233/6/3
f 242/6/3 240/6/3 241/6/3
f 243/6/3 240/6/3 242/6/3
f 244/6/3 240/6/3 243/6/3
f 245/6/3 240/6/3 244/6/3
f 246/6/3 240/6/3 245/6/3
f 247/6/3 240/6/3 246/6/3
f 248/6/3 224/6/3 240/6/3
f 248/6/3 240/6/3 247/6/3
f 249/6/3 241/6/3 223/6/3
f 250/6/3 243/6/3 242/6/3
f 251/6/3 243/6/3 250/6/3
f 252/6/3 245/6/3 244/6/3
f 253/6/3 245/6/3 252/6/3
f 254/6/3 247/6/3 246/6/3
f 255/6/3 247/6/3 254/6/3
f 256/6/3 224/6/3 248/6/3
f 257/6/3 253/6/3 252/6/3
f 257/6/3 256/6/3 255/6/3
f 257/6/3 255/6/3 254/6/3
f 257/6/3 251/6/3 250/6/3
f 257/6/3 254/6/3 253/6/3
f 257/6/3 249/6/3 223/6/3
f 257/6/3 252/6/3 251/6/3
f 257/6/3 250/6/3 249/6/3
f 258/6/3 256/6/3 257/6/3
f 259/6/3 256/6/3 258/6/3
f 260/6/3 256/6/3 259/6/3
f 261/6/3 256/6/3 260/6/3
f 262/6/3 256/6/3 261/6/3
f 263/6/3 256/6/3 262/6/3
f 264/6/3 256/6/3 263/6/3
f 265/6/3 256/6/3 264/6/3
f 266/6/3 224/6/3 256/6/3
f 266/6/3 256/6/3 265/6/3
f 267/6/3 259/6/3 258/6/3
f 268/6/3 261/6/3 260/6/3
f 269/6/3 261/6/3 268/6/3
f 270/6/3 263/6/3 262/6/3
f 271/6/3 263/6/3 270/6/3
f 272/6/3 265/6/3 264/6/3
f 273/6/3 265/6/3 272/6/3
f 274/6/3 224/6/3 266/6/3
f 276/6/3 271/6/3 270/6/3
f 276/6/3 274/6/3 273/6/3
f 276/6/3 273/6/3 272/6/3
f 276/6/3 269/6/3 268/6/3
f 276/6/3 272/6/3 271/6/3
f 276/6/3 267/6/3 258/6/3
f 276/6/3 270/6/3 269/6/3
f 276/6/3 268/6/3 267/6/3
f 277/6/3 274/6/3 276/6/3
f 277/6/3 276/6/3 275/6/3
f 278/6/3 274/6/3 277/6/3
f 279/6/3 274/6/3 278/6/3
f 280/6/3 274/6/3 279/6/3
f 281/6/3 274/6/3 280/6/3
f 282/6/3 274/6/3 281/6/3
f 283/6/3 274/6/3 282/6/3
f 284/6/3 224/6/3 274/6/3
f 284/6/3 274/6/3 283/6/3
f 285/6/3 277/6/3 275/6/3
f 286/6/3 279/6/3 278/6/3
f 287/6/3 279/6/3 286/6/3
f 288/6/3 281/6/3 280/6/3
f 289/6/3 281/6/3 288/6/3
f 290/6/3 283/6/3 282/6/3
f 291/6/3 283/6/3 290/6/3
f 292/6/3 224/6/3 284/6/3
f 293/6/3 289/6/3 288/6/3
f 293/6/3 292/6/3 291/6/3
f 293/6/3 291/6/3 290/6/3
f 293/6/3 287/6/3 286/6/3
f 293/6/3 290/6/3 289/6/3
f 293/6/3 285/6/3 275/6/3
f 293/6/3 288/6/3 287/6/3
f 293/6/3 286/6/3 285/6/3
f 294/6/3 292/6/3 293/6/3
f 295/6/3 292/6/3 294/6/3
f 296/6/3 292/6/3 295/6/3
f 297/6/3 292/6/3 296/6/3
f 298/6/3 292/6/3 297/6/3
f 299/6/3 292/6/3 298/6/3
f 300/6/3 224/6/3 292/6/3
f 300/6/3 292/6/3 299/6/3
f 301/6/3 293/6/3 275/6/3
f 302/6/3 295/6/3 294/6/3
f 303/6/3 295/6/3 302/6/3
f 304/6/3 297/6/3 296/6/3
f 305/6/3 297/6/3 304/6/3
f 306/6/3 299/6/3 298/6/3
f 307/6/3 299/6/3 306/6/3
f 308/6/3 224/6/3 300/6/3
f 309/6/3 305/6/3 304/6/3
f 309/6/3 308/6/3 307/6/3
f 309/6/3 307/6/3 306/6/3
f 309/6/3 303/6/3 302/6/3
f 309/6/3 306/6/3 305/6/3
f 309/6/3 301/6/3 275/6/3
f 309/6/3 304/6/3 303/6/3
f 309/6/3 302/6/3 301/6/3
f 310/6/3 224/6/3 308/6/3
f 310/6/3 308/6/3 309/6/3
f 319/5/3 312/5/3 311/5/3
f 320/5/3 312/5/3 319/5/3
f 321/5/3 314/5/3 313/5/3
f 322/5/3 314/5/3 321/5/3
f 323/5/3 316/5/3 315/5/3
f 324/5/3 316/5/3 323/5/3
f 325/5/3 318/5/3 317/5/3
f 326/5/3 318/5/3 325/5/3
f 335/5/3 328/5/3 327/5/3
f 336/5/3 328/5/3 335/5/3
f 337/5/3 330/5/3 329/5/3
f 338/5/3 330/5/3 337/5/3
f 339/5/3 332/5/3 331/5/3
f 340/5/3 332/5/3 339/5/3
f 341/5/3 334/5/3 333/5/3
f 342/5/3 334/5/3 341/5/3
f 353/5/3 346/5/3 345/5/3
f 354/5/3 346/5/3 353/5/3
f 355/5/3 348/5/3 347/5/3
f 356/5/3 348/5/3 355/5/3
f 357/5/3 350/5/3 349/5/3
f 358/5/3 350/5/3 357/5/3
f 359/5/3 352/5/3 351/5/3
f 360/5/3 352/5/3 359/5/3
f 361/2/3 344/2/3 343/2/3
f 362/2/3 344/2/3 361/2/3
f 371/5/3 364/5/3 363/5/3
f 372/5/3 364/5/3 371/5/3
f 373/5/3 366/5/3 365/5/3
f 374/5/3 366/5/3 373/5/3
f 375/5/3 368/5/3 367/5/3
f 376/5/3 368/5/3 375/5/3
f 377/5/3 370/5/3 369/5/3
f 378/5/3 370/5/3 377/5/3
f 387/5/3 380/5/3 379/5/3
f 388/5/3 380/5/3 387/5/3
f 389/5/3 382/5/3 381/5/3
f 390/5/3 382/5/3 389/5/3
f 391/5/3 384/5/3 383/5/3
f 392/5/3 384/5/3 391/5/3
f 393/5/3 386/5/3 385/5/3
f 394/5/3 386/5/3 393/5/3
f 397/4/3 396/4/3 395/4/3
f 398/4/3 396/4/3 397/4/3
f 401/4/3 400/4/3 399/4/3
f 402/4/3 400/4/3 401/4/3
f 403/4/3 401/4/3 399/4/3
f 404/4/3 401/4/3 403/4/3
f 407/1/3 406/1/3 405/1/3
f 408/1/3 406/1/3 407/1/3
f 411/4/3 410/4/3 409/4/3
f 413/4/3 412/4/3 411/4/3
f 415/4/3 411/4/3 409/4/3
f 415/4/3 413/4/3 411/4/3
f 416/1/3 414/1/3 413/1/3
f 416/4/3 413/4/3 415/4/3
f 417/1/3 414/1/3 416/1/3
f 418/4/4 419/4/4 421/4/4
f 419/1/4 420/1/4 421/1/4
f 421/1/4 420/1/4 422/1/4
f 418/4/4 421/4/4 423/4/4
f 423/4/4 421/4/4 424/4/4
f 418/4/4 423/4/4 425/4/4
f 425/4/4 423/4/4 426/4/4
f 418/4/4 425/4/4 427/4/4
f 427/4/4 425/4/4 428/4/4
f 429/1/4 430/1/4 431/1/4
f 431/1/4 430/1/4 432/1/4
f 433/4/4 434/4/4 435/4/4
f 435/4/4 434/4/4 436/4/4
f 437/4/4 438/4/4 439/4/4
f 439/4/4 438/4/4 440/4/4
f 441/6/4 442/6/4 443/6/4
f 443/6/4 442/6/4 444/6/4
f 449/6/5 446/6/5 445/6/5
f 450/6/5 448/6/5 447/6/5
f 451/6/5 449/6/5 445/6/5
f 451/2/5 450/2/5 449/2/5
f 452/6/5 448/6/5 450/6/5
f 452/2/5 450/2/5 451/2/5
f 453/6/5 451/6/5 445/6/5
f 453/6/5 452/6/5 451/6/5
f 454/6/5 448/6/5 452/6/5
f 454/6/5 452/6/5 453/6/5
f 457/6/5 456/6/5 455/6/5
f 458/6/5 456/6/5 457/6/5
f 469/6/5 460/6/5 459/6/5
f 470/6/5 460/6/5 469/6/5
f 471/6/5 462/6/5 461/6/5
f 472/6/5 462/6/5 471/6/5
f 473/6/5 464/6/5 463/6/5
f 474/6/5 464/6/5 473/6/5
f 475/6/5 466/6/5 465/6/5
f 476/6/5 466/6/5 475/6/5
f 477/6/5 468/6/5 467/6/5
f 478/6/5 468/6/5 477/6/5
f 489/6/5 480/6/5 479/6/5
f 490/6/5 480/6/5 489/6/5
f 491/6/5 482/6/5 481/6/5
f 492/6/5 482/6/5 491/6/5
f 493/6/5 484/6/5 483/6/5
f 494/6/5 484/6/5 493/6/5
f 495/6/5 486/6/5 485/6/5
f 496/6/5 486/6/5 495/6/5
f 497/6/5 488/6/5 487/6/5
f 498/6/5 488/6/5 497/6/5
f 509/6/5 500/6/5 499/6/5
f 510/6/5 500/6/5 509/6/5
f 511/6/5 502/6/5 501/6/5
f 512/6/5 502/6/5 511/6/5
f 513/6/5 504/6/5 503/6/5
f 514/6/5 504/6/5 513/6/5
f 515/6/5 506/6/5 505/6/5
f 516/6/5 506/6/5 515/6/5
f 517/6/5 508/6/5 507/6/5
f 518/6/5 508/6/5 517/6/5
f 529/6/5 520/6/5 519/6/5
f 530/6/5 520/6/5 529/6/5
f 531/6/5 522/6/5 521/6/5
f 532/6/5 522/6/5 531/6/5
f 533/6/5 524/6/5 523/6/5
f 534/6/5 524/6/5 533/6/5
f 535/6/5 526/6/5 525/6/5
f 536/6/5 526/6/5 535/6/5
f 537/6/5 528/6/5 527/6/5
f 538/6/5 528/6/5 537/6/5
f 539/6/6 540/6/6 549/6/6
f 549/6/6 540/6/6 550/6/6
f 541/6/6 542/6/6 551/6/6
f 551/6/6 542/6/6 552/6/6
f 543/6/6 544/6/6 553/6/6
f 553/6/6 544/6/6 554/6/6
f 545/6/6 546/6/6 555/6/6
f 555/6/6 546/6/6 556/6/6
f 547/6/6 548/6/6 557/6/6
f 557/6/6 548/6/6 558/6/6
f 559/6/6 560/6/6 569/6/6
f 569/6/6 560/6/6 570/6/6
f 561/6/6 562/6/6 571/6/6
f 571/6/6 562/6/6 572/6/6
f 563/6/6 564/6/6 573/6/6
f 573/6/6 564/6/6 574/6/6
f 565/6/6 566/6/6 575/6/6
f 575/6/6 566/6/6 576/6/6
f 567/6/6 568/6/6 577/6/6
f 577/6/6 568/6/6 578/6/6
f 579/6/6 580/6/6 589/6/6
f 589/6/6 580/6/6 590/6/6
f 581/6/6 582/6/6 591/6/6
f 591/6/6 582/6/6 592/6/6
f 583/6/6 584/6/6 593/6/6
f 593/6/6 584/6/6 594/6/6
f 585/6/6 586/6/6 595/6/6
f 595/6/6 586/6/6 596/6/6
f 587/6/6 588/6/6 597/6/6
f 597/6/6 588/6/6 598/6/6
f 599/6/6 600/6/6 609/6/6
f 609/6/6 600/6/6 610/6/6
f 601/6/6 602/6/6 611/6/6
f 611/6/6 602/6/6 612/6/6
f 603/6/6 604/6/6 613/6/6
f 613/6/6 604/6/6 614/6/6
f 605/6/6 606/6/6 615/6/6
f 615/6/6 606/6/6 616/6/6
f 607/6/6 608/6/6 617/6/6
f 617/6/6 608/6/6 618/6/6
f 619/6/6 620/6/6 621/6/6
f 621/6/6 620/6/6 622/6/6
f 621/3/6 622/3/6 623/3/6
f 623/3/6 622/3/6 624/3/6
f 621/3/6 623/3/6 625/3/6
f 624/3/6 622/3/6 626/3/6
f 621/3/6 625/3/6 627/3/6
f 625/3/6 626/3/6 627/3/6
f 627/3/6 626/3/6 628/3/6
f 621/3/6 627/3/6 629/3/6
f 628/3/6 626/3/6 630/3/6
f 619/6/6 621/6/6 631/6/6
f 629/3/6 630/3/6 631/3/6
f 621/3/6 629/3/6 631/3/6
f 630/3/6 626/3/6 632/3/6
f 631/3/6 630/3/6 632/3/6
f 622/6/6 620/6/6 632/6/6
f 626/3/6 622/3/6 632/3/6
f 619/6/6 631/6/6 633/6/6
f 631/6/6 632/6/6 633/6/6
f 632/6/6 620/6/6 634/6/6
f 633/6/6 632/6/6 634/6/6
f 635/4/6 636/4/6 637/4/6
f 637/4/6 636/4/6 638/4/6
f 638/4/6 636/4/6 639/4/6
f 639/4/6 636/4/6 640/4/6
f 641/4/6 642/4/6 643/4/6
f 641/4/6 643/4/6 645/4/6
f 643/4/6 644/4/6 645/4/6
f 645/4/6 644/4/6 646/4/6
f 647/4/6 648/4/6 649/4/6
f 649/4/6 648/4/6 650/4/6
f 651/4/6 652/4/6 653/4/6
f 651/4/6 653/4/6 655/4/6
f 653/4/6 654/4/6 655/4/6
f 655/4/6 654/4/6 656/4/6
f 657/4/6 658/4/6 659/4/6
f 659/4/6 658/4/6 660/4/6
f 660/4/6 658/4/6 661/4/6
f 661/4/6 658/4/6 662/4/6
f 663/1/6 664/1/6 665/1/6
f 665/1/6 664/1/6 666/1/6
f 667/1/6 668/1/6 669/1/6
f 669/1/6 668/1/6 670/1/6
