# MagicaVoxel @ Ephtracy

# group
o 

# material
mtllib Level_2_Apartments_Blue.vox-3.mtl
usemtl palette

# normals
vn -1 0 0
vn 1 0 0
vn 0 0 1
vn 0 0 -1
vn 0 -1 0
vn 0 1 0

# texcoords
vt 0.00195312 0.5
vt 0.00976562 0.5
vt 0.0136719 0.5
vt 0.0175781 0.5
vt 0.119141 0.5
vt 0.193359 0.5

# verts
v -1.4 0 1.3
v -1.4 0 -0.9
v -1.4 3.5 1.3
v -1.4 3.5 -0.9
v -1.2 3.5 -0.2
v -1.2 3.5 -0.7
v -1.2 3.6 -0.2
v -1.2 3.6 -0.7
v -1.1 3.6 -0.2
v -1.1 3.6 -0.6
v -1.1 3.7 -0.2
v -1.1 3.7 -0.6
v -0.9 0.9 1.3
v -0.9 0.9 1.2
v -0.9 1.3 1.3
v -0.9 1.3 1.2
v -0.9 1.6 1.3
v -0.9 1.6 1.2
v -0.9 2 1.3
v -0.9 2 1.2
v -0.9 2.3 1.3
v -0.9 2.3 1.2
v -0.9 2.7 1.3
v -0.9 2.7 1.2
v -0.9 3 1.3
v -0.9 3 1.2
v -0.9 3.4 1.3
v -0.9 3.4 1.2
v -0.8 3.7 -0.2
v -0.8 3.7 -0.3
v -0.8 4 -0.2
v -0.8 4 -0.3
v -0.4 0.9 1.3
v -0.4 0.9 1.2
v -0.4 1.3 1.3
v -0.4 1.3 1.2
v -0.4 1.6 1.3
v -0.4 1.6 1.2
v -0.4 2 1.3
v -0.4 2 1.2
v -0.4 2.3 1.3
v -0.4 2.3 1.2
v -0.4 2.7 1.3
v -0.4 2.7 1.2
v -0.4 3 1.3
v -0.4 3 1.2
v -0.4 3.4 1.3
v -0.4 3.4 1.2
v 0.1 0.9 1.3
v 0.1 0.9 1.2
v 0.1 1.3 1.3
v 0.1 1.3 1.2
v 0.1 1.6 1.3
v 0.1 1.6 1.2
v 0.1 2 1.3
v 0.1 2 1.2
v 0.1 2.3 1.3
v 0.1 2.3 1.2
v 0.1 2.7 1.3
v 0.1 2.7 1.2
v 0.1 3 1.3
v 0.1 3 1.2
v 0.1 3.4 1.3
v 0.1 3.4 1.2
v 0.2 0 1.3
v 0.2 0 1.2
v 0.2 0.5 1.3
v 0.2 0.5 1.2
v 0.5 3.5 1.1
v 0.5 3.5 0.4
v 0.5 3.6 1.1
v 0.5 3.6 1
v 0.5 3.8 1
v 0.5 3.8 0.5
v 0.5 3.8 0.4
v 0.5 4 0.5
v 0.5 4 0.4
v 0.6 0.9 1.3
v 0.6 0.9 1.2
v 0.6 1.3 1.3
v 0.6 1.3 1.2
v 0.6 1.6 1.3
v 0.6 1.6 1.2
v 0.6 2 1.3
v 0.6 2 1.2
v 0.6 2.3 1.3
v 0.6 2.3 1.2
v 0.6 2.7 1.3
v 0.6 2.7 1.2
v 0.6 3 1.3
v 0.6 3 1.2
v 0.6 3.4 1.3
v 0.6 3.4 1.2
v 1.1 0.9 1.3
v 1.1 0.9 1.2
v 1.1 1.3 1.3
v 1.1 1.3 1.2
v 1.1 1.6 1.3
v 1.1 1.6 1.2
v 1.1 2 1.3
v 1.1 2 1.2
v 1.1 2.3 1.3
v 1.1 2.3 1.2
v 1.1 2.7 1.3
v 1.1 2.7 1.2
v 1.1 3 1.3
v 1.1 3 1.2
v 1.1 3.4 1.3
v 1.1 3.4 1.2
v -1.2 0.9 1.3
v -1.2 0.9 1.2
v -1.2 1.3 1.3
v -1.2 1.3 1.2
v -1.2 1.6 1.3
v -1.2 1.6 1.2
v -1.2 2 1.3
v -1.2 2 1.2
v -1.2 2.3 1.3
v -1.2 2.3 1.2
v -1.2 2.7 1.3
v -1.2 2.7 1.2
v -1.2 3 1.3
v -1.2 3 1.2
v -1.2 3.4 1.3
v -1.2 3.4 1.2
v -0.7 0.9 1.3
v -0.7 0.9 1.2
v -0.7 1.3 1.3
v -0.7 1.3 1.2
v -0.7 1.6 1.3
v -0.7 1.6 1.2
v -0.7 2 1.3
v -0.7 2 1.2
v -0.7 2.3 1.3
v -0.7 2.3 1.2
v -0.7 2.7 1.3
v -0.7 2.7 1.2
v -0.7 3 1.3
v -0.7 3 1.2
v -0.7 3.4 1.3
v -0.7 3.4 1.2
v -0.7 3.5 -0.2
v -0.7 3.5 -0.7
v -0.7 3.6 -0.6
v -0.7 3.6 -0.7
v -0.7 3.7 -0.2
v -0.7 3.7 -0.3
v -0.7 3.7 -0.6
v -0.7 4 -0.2
v -0.7 4 -0.3
v -0.2 0 1.3
v -0.2 0 1.2
v -0.2 0.5 1.3
v -0.2 0.5 1.2
v -0.2 0.9 1.3
v -0.2 0.9 1.2
v -0.2 1.3 1.3
v -0.2 1.3 1.2
v -0.2 1.6 1.3
v -0.2 1.6 1.2
v -0.2 2 1.3
v -0.2 2 1.2
v -0.2 2.3 1.3
v -0.2 2.3 1.2
v -0.2 2.7 1.3
v -0.2 2.7 1.2
v -0.2 3 1.3
v -0.2 3 1.2
v -0.2 3.4 1.3
v -0.2 3.4 1.2
v 0.3 0.9 1.3
v 0.3 0.9 1.2
v 0.3 1.3 1.3
v 0.3 1.3 1.2
v 0.3 1.6 1.3
v 0.3 1.6 1.2
v 0.3 2 1.3
v 0.3 2 1.2
v 0.3 2.3 1.3
v 0.3 2.3 1.2
v 0.3 2.7 1.3
v 0.3 2.7 1.2
v 0.3 3 1.3
v 0.3 3 1.2
v 0.3 3.4 1.3
v 0.3 3.4 1.2
v 0.6 3.8 0.5
v 0.6 3.8 0.4
v 0.6 4 0.5
v 0.6 4 0.4
v 0.8 0.9 1.3
v 0.8 0.9 1.2
v 0.8 1.3 1.3
v 0.8 1.3 1.2
v 0.8 1.6 1.3
v 0.8 1.6 1.2
v 0.8 2 1.3
v 0.8 2 1.2
v 0.8 2.3 1.3
v 0.8 2.3 1.2
v 0.8 2.7 1.3
v 0.8 2.7 1.2
v 0.8 3 1.3
v 0.8 3 1.2
v 0.8 3.4 1.3
v 0.8 3.4 1.2
v 0.8 3.7 1
v 0.8 3.7 0.4
v 0.8 3.8 1
v 0.8 3.8 0.4
v 0.9 3.6 1
v 0.9 3.6 0.4
v 0.9 3.7 1
v 0.9 3.7 0.4
v 1.1 3.5 1.1
v 1.1 3.5 0.4
v 1.1 3.6 1.1
v 1.1 3.6 0.4
v 1.3 0 1.3
v 1.3 0 -0.9
v 1.3 3.5 1.3
v 1.3 3.5 -0.9
v -1.4 0 1.3
v -1.4 3.5 1.3
v -1.2 0.9 1.3
v -1.2 1.3 1.3
v -1.2 1.6 1.3
v -1.2 2 1.3
v -1.2 2.3 1.3
v -1.2 2.7 1.3
v -1.2 3 1.3
v -1.2 3.4 1.3
v -0.9 0.9 1.3
v -0.9 1.3 1.3
v -0.9 1.6 1.3
v -0.9 2 1.3
v -0.9 2.3 1.3
v -0.9 2.7 1.3
v -0.9 3 1.3
v -0.9 3.4 1.3
v -0.7 0.9 1.3
v -0.7 1.3 1.3
v -0.7 1.6 1.3
v -0.7 2 1.3
v -0.7 2.3 1.3
v -0.7 2.7 1.3
v -0.7 3 1.3
v -0.7 3.4 1.3
v -0.4 0.9 1.3
v -0.4 1.3 1.3
v -0.4 1.6 1.3
v -0.4 2 1.3
v -0.4 2.3 1.3
v -0.4 2.7 1.3
v -0.4 3 1.3
v -0.4 3.4 1.3
v -0.2 0 1.3
v -0.2 0.5 1.3
v -0.2 0.9 1.3
v -0.2 1.3 1.3
v -0.2 1.6 1.3
v -0.2 2 1.3
v -0.2 2.3 1.3
v -0.2 2.7 1.3
v -0.2 3 1.3
v -0.2 3.4 1.3
v 0.1 0.9 1.3
v 0.1 1.3 1.3
v 0.1 1.6 1.3
v 0.1 2 1.3
v 0.1 2.3 1.3
v 0.1 2.7 1.3
v 0.1 3 1.3
v 0.1 3.4 1.3
v 0.2 0 1.3
v 0.2 0.5 1.3
v 0.3 0.9 1.3
v 0.3 1.3 1.3
v 0.3 1.6 1.3
v 0.3 2 1.3
v 0.3 2.3 1.3
v 0.3 2.7 1.3
v 0.3 3 1.3
v 0.3 3.4 1.3
v 0.6 0.9 1.3
v 0.6 1.3 1.3
v 0.6 1.6 1.3
v 0.6 2 1.3
v 0.6 2.3 1.3
v 0.6 2.7 1.3
v 0.6 3 1.3
v 0.6 3.4 1.3
v 0.8 0.9 1.3
v 0.8 1.3 1.3
v 0.8 1.6 1.3
v 0.8 2 1.3
v 0.8 2.3 1.3
v 0.8 2.7 1.3
v 0.8 3 1.3
v 0.8 3.4 1.3
v 1.1 0.9 1.3
v 1.1 1.3 1.3
v 1.1 1.6 1.3
v 1.1 2 1.3
v 1.1 2.3 1.3
v 1.1 2.7 1.3
v 1.1 3 1.3
v 1.1 3.4 1.3
v 1.3 0 1.3
v 1.3 3.5 1.3
v -1.2 0.9 1.2
v -1.2 1.3 1.2
v -1.2 1.6 1.2
v -1.2 2 1.2
v -1.2 2.3 1.2
v -1.2 2.7 1.2
v -1.2 3 1.2
v -1.2 3.4 1.2
v -0.9 0.9 1.2
v -0.9 1.3 1.2
v -0.9 1.6 1.2
v -0.9 2 1.2
v -0.9 2.3 1.2
v -0.9 2.7 1.2
v -0.9 3 1.2
v -0.9 3.4 1.2
v -0.7 0.9 1.2
v -0.7 1.3 1.2
v -0.7 1.6 1.2
v -0.7 2 1.2
v -0.7 2.3 1.2
v -0.7 2.7 1.2
v -0.7 3 1.2
v -0.7 3.4 1.2
v -0.4 0.9 1.2
v -0.4 1.3 1.2
v -0.4 1.6 1.2
v -0.4 2 1.2
v -0.4 2.3 1.2
v -0.4 2.7 1.2
v -0.4 3 1.2
v -0.4 3.4 1.2
v -0.2 0 1.2
v -0.2 0.5 1.2
v -0.2 0.9 1.2
v -0.2 1.3 1.2
v -0.2 1.6 1.2
v -0.2 2 1.2
v -0.2 2.3 1.2
v -0.2 2.7 1.2
v -0.2 3 1.2
v -0.2 3.4 1.2
v 0.1 0.9 1.2
v 0.1 1.3 1.2
v 0.1 1.6 1.2
v 0.1 2 1.2
v 0.1 2.3 1.2
v 0.1 2.7 1.2
v 0.1 3 1.2
v 0.1 3.4 1.2
v 0.2 0 1.2
v 0.2 0.5 1.2
v 0.3 0.9 1.2
v 0.3 1.3 1.2
v 0.3 1.6 1.2
v 0.3 2 1.2
v 0.3 2.3 1.2
v 0.3 2.7 1.2
v 0.3 3 1.2
v 0.3 3.4 1.2
v 0.6 0.9 1.2
v 0.6 1.3 1.2
v 0.6 1.6 1.2
v 0.6 2 1.2
v 0.6 2.3 1.2
v 0.6 2.7 1.2
v 0.6 3 1.2
v 0.6 3.4 1.2
v 0.8 0.9 1.2
v 0.8 1.3 1.2
v 0.8 1.6 1.2
v 0.8 2 1.2
v 0.8 2.3 1.2
v 0.8 2.7 1.2
v 0.8 3 1.2
v 0.8 3.4 1.2
v 1.1 0.9 1.2
v 1.1 1.3 1.2
v 1.1 1.6 1.2
v 1.1 2 1.2
v 1.1 2.3 1.2
v 1.1 2.7 1.2
v 1.1 3 1.2
v 1.1 3.4 1.2
v 0.5 3.5 1.1
v 0.5 3.6 1.1
v 1.1 3.5 1.1
v 1.1 3.6 1.1
v 0.5 3.6 1
v 0.5 3.8 1
v 0.8 3.7 1
v 0.8 3.8 1
v 0.9 3.6 1
v 0.9 3.7 1
v 0.5 3.8 0.5
v 0.5 4 0.5
v 0.6 3.8 0.5
v 0.6 4 0.5
v -1.2 3.5 -0.2
v -1.2 3.6 -0.2
v -1.1 3.6 -0.2
v -1.1 3.7 -0.2
v -0.8 3.7 -0.2
v -0.8 4 -0.2
v -0.7 3.5 -0.2
v -0.7 3.7 -0.2
v -0.7 4 -0.2
v 0.5 3.5 0.4
v 0.5 3.8 0.4
v 0.5 4 0.4
v 0.6 3.8 0.4
v 0.6 4 0.4
v 0.8 3.7 0.4
v 0.8 3.8 0.4
v 0.9 3.6 0.4
v 0.9 3.7 0.4
v 1.1 3.5 0.4
v 1.1 3.6 0.4
v -0.8 3.7 -0.3
v -0.8 4 -0.3
v -0.7 3.7 -0.3
v -0.7 4 -0.3
v -1.1 3.6 -0.6
v -1.1 3.7 -0.6
v -0.7 3.6 -0.6
v -0.7 3.7 -0.6
v -1.2 3.5 -0.7
v -1.2 3.6 -0.7
v -0.7 3.5 -0.7
v -0.7 3.6 -0.7
v -1.4 0 -0.9
v -1.4 3.5 -0.9
v 1.3 0 -0.9
v 1.3 3.5 -0.9
v -1.4 0 1.3
v -0.2 0 1.3
v 0.2 0 1.3
v 1.3 0 1.3
v -0.2 0 1.2
v 0.2 0 1.2
v -0.2 0 1.1
v 0.2 0 1.1
v -1.4 0 -0.9
v 1.3 0 -0.9
v -0.2 0.5 1.3
v 0.2 0.5 1.3
v -0.2 0.5 1.2
v 0.2 0.5 1.2
v -1.2 1.3 1.3
v -0.9 1.3 1.3
v -0.7 1.3 1.3
v -0.4 1.3 1.3
v -0.2 1.3 1.3
v 0.1 1.3 1.3
v 0.3 1.3 1.3
v 0.6 1.3 1.3
v 0.8 1.3 1.3
v 1.1 1.3 1.3
v -1.2 1.3 1.2
v -0.9 1.3 1.2
v -0.7 1.3 1.2
v -0.4 1.3 1.2
v -0.2 1.3 1.2
v 0.1 1.3 1.2
v 0.3 1.3 1.2
v 0.6 1.3 1.2
v 0.8 1.3 1.2
v 1.1 1.3 1.2
v -1.2 2 1.3
v -0.9 2 1.3
v -0.7 2 1.3
v -0.4 2 1.3
v -0.2 2 1.3
v 0.1 2 1.3
v 0.3 2 1.3
v 0.6 2 1.3
v 0.8 2 1.3
v 1.1 2 1.3
v -1.2 2 1.2
v -0.9 2 1.2
v -0.7 2 1.2
v -0.4 2 1.2
v -0.2 2 1.2
v 0.1 2 1.2
v 0.3 2 1.2
v 0.6 2 1.2
v 0.8 2 1.2
v 1.1 2 1.2
v -1.2 2.7 1.3
v -0.9 2.7 1.3
v -0.7 2.7 1.3
v -0.4 2.7 1.3
v -0.2 2.7 1.3
v 0.1 2.7 1.3
v 0.3 2.7 1.3
v 0.6 2.7 1.3
v 0.8 2.7 1.3
v 1.1 2.7 1.3
v -1.2 2.7 1.2
v -0.9 2.7 1.2
v -0.7 2.7 1.2
v -0.4 2.7 1.2
v -0.2 2.7 1.2
v 0.1 2.7 1.2
v 0.3 2.7 1.2
v 0.6 2.7 1.2
v 0.8 2.7 1.2
v 1.1 2.7 1.2
v -1.2 3.4 1.3
v -0.9 3.4 1.3
v -0.7 3.4 1.3
v -0.4 3.4 1.3
v -0.2 3.4 1.3
v 0.1 3.4 1.3
v 0.3 3.4 1.3
v 0.6 3.4 1.3
v 0.8 3.4 1.3
v 1.1 3.4 1.3
v -1.2 3.4 1.2
v -0.9 3.4 1.2
v -0.7 3.4 1.2
v -0.4 3.4 1.2
v -0.2 3.4 1.2
v 0.1 3.4 1.2
v 0.3 3.4 1.2
v 0.6 3.4 1.2
v 0.8 3.4 1.2
v 1.1 3.4 1.2
v -1.2 0.9 1.3
v -0.9 0.9 1.3
v -0.7 0.9 1.3
v -0.4 0.9 1.3
v -0.2 0.9 1.3
v 0.1 0.9 1.3
v 0.3 0.9 1.3
v 0.6 0.9 1.3
v 0.8 0.9 1.3
v 1.1 0.9 1.3
v -1.2 0.9 1.2
v -0.9 0.9 1.2
v -0.7 0.9 1.2
v -0.4 0.9 1.2
v -0.2 0.9 1.2
v 0.1 0.9 1.2
v 0.3 0.9 1.2
v 0.6 0.9 1.2
v 0.8 0.9 1.2
v 1.1 0.9 1.2
v -1.2 1.6 1.3
v -0.9 1.6 1.3
v -0.7 1.6 1.3
v -0.4 1.6 1.3
v -0.2 1.6 1.3
v 0.1 1.6 1.3
v 0.3 1.6 1.3
v 0.6 1.6 1.3
v 0.8 1.6 1.3
v 1.1 1.6 1.3
v -1.2 1.6 1.2
v -0.9 1.6 1.2
v -0.7 1.6 1.2
v -0.4 1.6 1.2
v -0.2 1.6 1.2
v 0.1 1.6 1.2
v 0.3 1.6 1.2
v 0.6 1.6 1.2
v 0.8 1.6 1.2
v 1.1 1.6 1.2
v -1.2 2.3 1.3
v -0.9 2.3 1.3
v -0.7 2.3 1.3
v -0.4 2.3 1.3
v -0.2 2.3 1.3
v 0.1 2.3 1.3
v 0.3 2.3 1.3
v 0.6 2.3 1.3
v 0.8 2.3 1.3
v 1.1 2.3 1.3
v -1.2 2.3 1.2
v -0.9 2.3 1.2
v -0.7 2.3 1.2
v -0.4 2.3 1.2
v -0.2 2.3 1.2
v 0.1 2.3 1.2
v 0.3 2.3 1.2
v 0.6 2.3 1.2
v 0.8 2.3 1.2
v 1.1 2.3 1.2
v -1.2 3 1.3
v -0.9 3 1.3
v -0.7 3 1.3
v -0.4 3 1.3
v -0.2 3 1.3
v 0.1 3 1.3
v 0.3 3 1.3
v 0.6 3 1.3
v 0.8 3 1.3
v 1.1 3 1.3
v -1.2 3 1.2
v -0.9 3 1.2
v -0.7 3 1.2
v -0.4 3 1.2
v -0.2 3 1.2
v 0.1 3 1.2
v 0.3 3 1.2
v 0.6 3 1.2
v 0.8 3 1.2
v 1.1 3 1.2
v -1.4 3.5 1.3
v 1.3 3.5 1.3
v -1.3 3.5 1.2
v 1.2 3.5 1.2
v 0.5 3.5 1.1
v 1.1 3.5 1.1
v 0.5 3.5 0.4
v 1.1 3.5 0.4
v -1.2 3.5 -0.2
v -0.7 3.5 -0.2
v -1.2 3.5 -0.7
v -0.7 3.5 -0.7
v -1.3 3.5 -0.8
v 1.2 3.5 -0.8
v -1.4 3.5 -0.9
v 1.3 3.5 -0.9
v 0.5 3.6 1.1
v 1.1 3.6 1.1
v 0.5 3.6 1
v 0.9 3.6 1
v 0.9 3.6 0.4
v 1.1 3.6 0.4
v -1.2 3.6 -0.2
v -1.1 3.6 -0.2
v -1.1 3.6 -0.6
v -0.7 3.6 -0.6
v -1.2 3.6 -0.7
v -0.7 3.6 -0.7
v 0.8 3.7 1
v 0.9 3.7 1
v 0.8 3.7 0.4
v 0.9 3.7 0.4
v -1.1 3.7 -0.2
v -0.8 3.7 -0.2
v -0.8 3.7 -0.3
v -0.7 3.7 -0.3
v -1.1 3.7 -0.6
v -0.7 3.7 -0.6
v 0.5 3.8 1
v 0.8 3.8 1
v 0.5 3.8 0.5
v 0.6 3.8 0.5
v 0.6 3.8 0.4
v 0.8 3.8 0.4
v 0.5 4 0.5
v 0.6 4 0.5
v 0.5 4 0.4
v 0.6 4 0.4
v -0.8 4 -0.2
v -0.7 4 -0.2
v -0.8 4 -0.3
v -0.7 4 -0.3

# faces
f 3/5/1 2/5/1 1/5/1
f 4/5/1 2/5/1 3/5/1
f 7/4/1 6/4/1 5/4/1
f 8/4/1 6/4/1 7/4/1
f 11/4/1 10/4/1 9/4/1
f 12/4/1 10/4/1 11/4/1
f 15/5/1 14/5/1 13/5/1
f 16/5/1 14/5/1 15/5/1
f 19/5/1 18/5/1 17/5/1
f 20/5/1 18/5/1 19/5/1
f 23/5/1 22/5/1 21/5/1
f 24/5/1 22/5/1 23/5/1
f 27/5/1 26/5/1 25/5/1
f 28/5/1 26/5/1 27/5/1
f 31/1/1 30/1/1 29/1/1
f 32/1/1 30/1/1 31/1/1
f 35/5/1 34/5/1 33/5/1
f 36/5/1 34/5/1 35/5/1
f 39/5/1 38/5/1 37/5/1
f 40/5/1 38/5/1 39/5/1
f 43/5/1 42/5/1 41/5/1
f 44/5/1 42/5/1 43/5/1
f 47/5/1 46/5/1 45/5/1
f 48/5/1 46/5/1 47/5/1
f 51/5/1 50/5/1 49/5/1
f 52/5/1 50/5/1 51/5/1
f 55/5/1 54/5/1 53/5/1
f 56/5/1 54/5/1 55/5/1
f 59/5/1 58/5/1 57/5/1
f 60/5/1 58/5/1 59/5/1
f 63/5/1 62/5/1 61/5/1
f 64/5/1 62/5/1 63/5/1
f 67/5/1 66/5/1 65/5/1
f 68/5/1 66/5/1 67/5/1
f 71/4/1 70/4/1 69/4/1
f 72/4/1 70/4/1 71/4/1
f 73/4/1 70/4/1 72/4/1
f 74/4/1 70/4/1 73/4/1
f 75/4/1 70/4/1 74/4/1
f 76/1/1 75/1/1 74/1/1
f 77/1/1 75/1/1 76/1/1
f 80/5/1 79/5/1 78/5/1
f 81/5/1 79/5/1 80/5/1
f 84/5/1 83/5/1 82/5/1
f 85/5/1 83/5/1 84/5/1
f 88/5/1 87/5/1 86/5/1
f 89/5/1 87/5/1 88/5/1
f 92/5/1 91/5/1 90/5/1
f 93/5/1 91/5/1 92/5/1
f 96/5/1 95/5/1 94/5/1
f 97/5/1 95/5/1 96/5/1
f 100/5/1 99/5/1 98/5/1
f 101/5/1 99/5/1 100/5/1
f 104/5/1 103/5/1 102/5/1
f 105/5/1 103/5/1 104/5/1
f 108/5/1 107/5/1 106/5/1
f 109/5/1 107/5/1 108/5/1
f 110/5/2 111/5/2 112/5/2
f 112/5/2 111/5/2 113/5/2
f 114/5/2 115/5/2 116/5/2
f 116/5/2 115/5/2 117/5/2
f 118/5/2 119/5/2 120/5/2
f 120/5/2 119/5/2 121/5/2
f 122/5/2 123/5/2 124/5/2
f 124/5/2 123/5/2 125/5/2
f 126/5/2 127/5/2 128/5/2
f 128/5/2 127/5/2 129/5/2
f 130/5/2 131/5/2 132/5/2
f 132/5/2 131/5/2 133/5/2
f 134/5/2 135/5/2 136/5/2
f 136/5/2 135/5/2 137/5/2
f 138/5/2 139/5/2 140/5/2
f 140/5/2 139/5/2 141/5/2
f 142/4/2 143/4/2 144/4/2
f 144/4/2 143/4/2 145/4/2
f 142/4/2 144/4/2 146/4/2
f 146/4/2 144/4/2 147/4/2
f 147/4/2 144/4/2 148/4/2
f 146/1/2 147/1/2 149/1/2
f 149/1/2 147/1/2 150/1/2
f 151/5/2 152/5/2 153/5/2
f 153/5/2 152/5/2 154/5/2
f 155/5/2 156/5/2 157/5/2
f 157/5/2 156/5/2 158/5/2
f 159/5/2 160/5/2 161/5/2
f 161/5/2 160/5/2 162/5/2
f 163/5/2 164/5/2 165/5/2
f 165/5/2 164/5/2 166/5/2
f 167/5/2 168/5/2 169/5/2
f 169/5/2 168/5/2 170/5/2
f 171/5/2 172/5/2 173/5/2
f 173/5/2 172/5/2 174/5/2
f 175/5/2 176/5/2 177/5/2
f 177/5/2 176/5/2 178/5/2
f 179/5/2 180/5/2 181/5/2
f 181/5/2 180/5/2 182/5/2
f 183/5/2 184/5/2 185/5/2
f 185/5/2 184/5/2 186/5/2
f 187/1/2 188/1/2 189/1/2
f 189/1/2 188/1/2 190/1/2
f 191/5/2 192/5/2 193/5/2
f 193/5/2 192/5/2 194/5/2
f 195/5/2 196/5/2 197/5/2
f 197/5/2 196/5/2 198/5/2
f 199/5/2 200/5/2 201/5/2
f 201/5/2 200/5/2 202/5/2
f 203/5/2 204/5/2 205/5/2
f 205/5/2 204/5/2 206/5/2
f 207/4/2 208/4/2 209/4/2
f 209/4/2 208/4/2 210/4/2
f 211/4/2 212/4/2 213/4/2
f 213/4/2 212/4/2 214/4/2
f 215/4/2 216/4/2 217/4/2
f 217/4/2 216/4/2 218/4/2
f 219/5/2 220/5/2 221/5/2
f 221/5/2 220/5/2 222/5/2
f 225/5/3 224/5/3 223/5/3
f 226/5/3 224/5/3 225/5/3
f 227/5/3 224/5/3 226/5/3
f 228/5/3 224/5/3 227/5/3
f 229/5/3 224/5/3 228/5/3
f 230/5/3 224/5/3 229/5/3
f 231/5/3 224/5/3 230/5/3
f 232/5/3 224/5/3 231/5/3
f 233/5/3 225/5/3 223/5/3
f 234/5/3 227/5/3 226/5/3
f 235/5/3 227/5/3 234/5/3
f 236/5/3 229/5/3 228/5/3
f 237/5/3 229/5/3 236/5/3
f 238/5/3 231/5/3 230/5/3
f 239/5/3 231/5/3 238/5/3
f 240/5/3 224/5/3 232/5/3
f 241/5/3 239/5/3 238/5/3
f 241/5/3 240/5/3 239/5/3
f 241/5/3 237/5/3 236/5/3
f 241/5/3 233/5/3 223/5/3
f 241/5/3 238/5/3 237/5/3
f 241/5/3 235/5/3 234/5/3
f 241/5/3 236/5/3 235/5/3
f 241/5/3 234/5/3 233/5/3
f 242/5/3 240/5/3 241/5/3
f 243/5/3 240/5/3 242/5/3
f 244/5/3 240/5/3 243/5/3
f 245/5/3 240/5/3 244/5/3
f 246/5/3 240/5/3 245/5/3
f 247/5/3 240/5/3 246/5/3
f 248/5/3 224/5/3 240/5/3
f 248/5/3 240/5/3 247/5/3
f 249/5/3 241/5/3 223/5/3
f 250/5/3 243/5/3 242/5/3
f 251/5/3 243/5/3 250/5/3
f 252/5/3 245/5/3 244/5/3
f 253/5/3 245/5/3 252/5/3
f 254/5/3 247/5/3 246/5/3
f 255/5/3 247/5/3 254/5/3
f 256/5/3 224/5/3 248/5/3
f 257/5/3 253/5/3 252/5/3
f 257/5/3 256/5/3 255/5/3
f 257/5/3 255/5/3 254/5/3
f 257/5/3 251/5/3 250/5/3
f 257/5/3 254/5/3 253/5/3
f 257/5/3 249/5/3 223/5/3
f 257/5/3 252/5/3 251/5/3
f 257/5/3 250/5/3 249/5/3
f 258/5/3 256/5/3 257/5/3
f 259/5/3 256/5/3 258/5/3
f 260/5/3 256/5/3 259/5/3
f 261/5/3 256/5/3 260/5/3
f 262/5/3 256/5/3 261/5/3
f 263/5/3 256/5/3 262/5/3
f 264/5/3 256/5/3 263/5/3
f 265/5/3 256/5/3 264/5/3
f 266/5/3 224/5/3 256/5/3
f 266/5/3 256/5/3 265/5/3
f 267/5/3 259/5/3 258/5/3
f 268/5/3 261/5/3 260/5/3
f 269/5/3 261/5/3 268/5/3
f 270/5/3 263/5/3 262/5/3
f 271/5/3 263/5/3 270/5/3
f 272/5/3 265/5/3 264/5/3
f 273/5/3 265/5/3 272/5/3
f 274/5/3 224/5/3 266/5/3
f 276/5/3 271/5/3 270/5/3
f 276/5/3 274/5/3 273/5/3
f 276/5/3 273/5/3 272/5/3
f 276/5/3 269/5/3 268/5/3
f 276/5/3 272/5/3 271/5/3
f 276/5/3 267/5/3 258/5/3
f 276/5/3 270/5/3 269/5/3
f 276/5/3 268/5/3 267/5/3
f 277/5/3 274/5/3 276/5/3
f 277/5/3 276/5/3 275/5/3
f 278/5/3 274/5/3 277/5/3
f 279/5/3 274/5/3 278/5/3
f 280/5/3 274/5/3 279/5/3
f 281/5/3 274/5/3 280/5/3
f 282/5/3 274/5/3 281/5/3
f 283/5/3 274/5/3 282/5/3
f 284/5/3 224/5/3 274/5/3
f 284/5/3 274/5/3 283/5/3
f 285/5/3 277/5/3 275/5/3
f 286/5/3 279/5/3 278/5/3
f 287/5/3 279/5/3 286/5/3
f 288/5/3 281/5/3 280/5/3
f 289/5/3 281/5/3 288/5/3
f 290/5/3 283/5/3 282/5/3
f 291/5/3 283/5/3 290/5/3
f 292/5/3 224/5/3 284/5/3
f 293/5/3 289/5/3 288/5/3
f 293/5/3 292/5/3 291/5/3
f 293/5/3 291/5/3 290/5/3
f 293/5/3 287/5/3 286/5/3
f 293/5/3 290/5/3 289/5/3
f 293/5/3 285/5/3 275/5/3
f 293/5/3 288/5/3 287/5/3
f 293/5/3 286/5/3 285/5/3
f 294/5/3 292/5/3 293/5/3
f 295/5/3 292/5/3 294/5/3
f 296/5/3 292/5/3 295/5/3
f 297/5/3 292/5/3 296/5/3
f 298/5/3 292/5/3 297/5/3
f 299/5/3 292/5/3 298/5/3
f 300/5/3 224/5/3 292/5/3
f 300/5/3 292/5/3 299/5/3
f 301/5/3 293/5/3 275/5/3
f 302/5/3 295/5/3 294/5/3
f 303/5/3 295/5/3 302/5/3
f 304/5/3 297/5/3 296/5/3
f 305/5/3 297/5/3 304/5/3
f 306/5/3 299/5/3 298/5/3
f 307/5/3 299/5/3 306/5/3
f 308/5/3 224/5/3 300/5/3
f 309/5/3 305/5/3 304/5/3
f 309/5/3 308/5/3 307/5/3
f 309/5/3 307/5/3 306/5/3
f 309/5/3 303/5/3 302/5/3
f 309/5/3 306/5/3 305/5/3
f 309/5/3 301/5/3 275/5/3
f 309/5/3 304/5/3 303/5/3
f 309/5/3 302/5/3 301/5/3
f 310/5/3 224/5/3 308/5/3
f 310/5/3 308/5/3 309/5/3
f 319/6/3 312/6/3 311/6/3
f 320/6/3 312/6/3 319/6/3
f 321/6/3 314/6/3 313/6/3
f 322/6/3 314/6/3 321/6/3
f 323/6/3 316/6/3 315/6/3
f 324/6/3 316/6/3 323/6/3
f 325/6/3 318/6/3 317/6/3
f 326/6/3 318/6/3 325/6/3
f 335/6/3 328/6/3 327/6/3
f 336/6/3 328/6/3 335/6/3
f 337/6/3 330/6/3 329/6/3
f 338/6/3 330/6/3 337/6/3
f 339/6/3 332/6/3 331/6/3
f 340/6/3 332/6/3 339/6/3
f 341/6/3 334/6/3 333/6/3
f 342/6/3 334/6/3 341/6/3
f 353/6/3 346/6/3 345/6/3
f 354/6/3 346/6/3 353/6/3
f 355/6/3 348/6/3 347/6/3
f 356/6/3 348/6/3 355/6/3
f 357/6/3 350/6/3 349/6/3
f 358/6/3 350/6/3 357/6/3
f 359/6/3 352/6/3 351/6/3
f 360/6/3 352/6/3 359/6/3
f 361/2/3 344/2/3 343/2/3
f 362/2/3 344/2/3 361/2/3
f 371/6/3 364/6/3 363/6/3
f 372/6/3 364/6/3 371/6/3
f 373/6/3 366/6/3 365/6/3
f 374/6/3 366/6/3 373/6/3
f 375/6/3 368/6/3 367/6/3
f 376/6/3 368/6/3 375/6/3
f 377/6/3 370/6/3 369/6/3
f 378/6/3 370/6/3 377/6/3
f 387/6/3 380/6/3 379/6/3
f 388/6/3 380/6/3 387/6/3
f 389/6/3 382/6/3 381/6/3
f 390/6/3 382/6/3 389/6/3
f 391/6/3 384/6/3 383/6/3
f 392/6/3 384/6/3 391/6/3
f 393/6/3 386/6/3 385/6/3
f 394/6/3 386/6/3 393/6/3
f 397/4/3 396/4/3 395/4/3
f 398/4/3 396/4/3 397/4/3
f 401/4/3 400/4/3 399/4/3
f 402/4/3 400/4/3 401/4/3
f 403/4/3 401/4/3 399/4/3
f 404/4/3 401/4/3 403/4/3
f 407/1/3 406/1/3 405/1/3
f 408/1/3 406/1/3 407/1/3
f 411/4/3 410/4/3 409/4/3
f 413/4/3 412/4/3 411/4/3
f 415/4/3 411/4/3 409/4/3
f 415/4/3 413/4/3 411/4/3
f 416/1/3 414/1/3 413/1/3
f 416/4/3 413/4/3 415/4/3
f 417/1/3 414/1/3 416/1/3
f 418/4/4 419/4/4 421/4/4
f 419/1/4 420/1/4 421/1/4
f 421/1/4 420/1/4 422/1/4
f 418/4/4 421/4/4 423/4/4
f 423/4/4 421/4/4 424/4/4
f 418/4/4 423/4/4 425/4/4
f 425/4/4 423/4/4 426/4/4
f 418/4/4 425/4/4 427/4/4
f 427/4/4 425/4/4 428/4/4
f 429/1/4 430/1/4 431/1/4
f 431/1/4 430/1/4 432/1/4
f 433/4/4 434/4/4 435/4/4
f 435/4/4 434/4/4 436/4/4
f 437/4/4 438/4/4 439/4/4
f 439/4/4 438/4/4 440/4/4
f 441/5/4 442/5/4 443/5/4
f 443/5/4 442/5/4 444/5/4
f 449/5/5 446/5/5 445/5/5
f 450/5/5 448/5/5 447/5/5
f 451/5/5 449/5/5 445/5/5
f 451/2/5 450/2/5 449/2/5
f 452/5/5 448/5/5 450/5/5
f 452/2/5 450/2/5 451/2/5
f 453/5/5 451/5/5 445/5/5
f 453/5/5 452/5/5 451/5/5
f 454/5/5 448/5/5 452/5/5
f 454/5/5 452/5/5 453/5/5
f 457/5/5 456/5/5 455/5/5
f 458/5/5 456/5/5 457/5/5
f 469/5/5 460/5/5 459/5/5
f 470/5/5 460/5/5 469/5/5
f 471/5/5 462/5/5 461/5/5
f 472/5/5 462/5/5 471/5/5
f 473/5/5 464/5/5 463/5/5
f 474/5/5 464/5/5 473/5/5
f 475/5/5 466/5/5 465/5/5
f 476/5/5 466/5/5 475/5/5
f 477/5/5 468/5/5 467/5/5
f 478/5/5 468/5/5 477/5/5
f 489/5/5 480/5/5 479/5/5
f 490/5/5 480/5/5 489/5/5
f 491/5/5 482/5/5 481/5/5
f 492/5/5 482/5/5 491/5/5
f 493/5/5 484/5/5 483/5/5
f 494/5/5 484/5/5 493/5/5
f 495/5/5 486/5/5 485/5/5
f 496/5/5 486/5/5 495/5/5
f 497/5/5 488/5/5 487/5/5
f 498/5/5 488/5/5 497/5/5
f 509/5/5 500/5/5 499/5/5
f 510/5/5 500/5/5 509/5/5
f 511/5/5 502/5/5 501/5/5
f 512/5/5 502/5/5 511/5/5
f 513/5/5 504/5/5 503/5/5
f 514/5/5 504/5/5 513/5/5
f 515/5/5 506/5/5 505/5/5
f 516/5/5 506/5/5 515/5/5
f 517/5/5 508/5/5 507/5/5
f 518/5/5 508/5/5 517/5/5
f 529/5/5 520/5/5 519/5/5
f 530/5/5 520/5/5 529/5/5
f 531/5/5 522/5/5 521/5/5
f 532/5/5 522/5/5 531/5/5
f 533/5/5 524/5/5 523/5/5
f 534/5/5 524/5/5 533/5/5
f 535/5/5 526/5/5 525/5/5
f 536/5/5 526/5/5 535/5/5
f 537/5/5 528/5/5 527/5/5
f 538/5/5 528/5/5 537/5/5
f 539/5/6 540/5/6 549/5/6
f 549/5/6 540/5/6 550/5/6
f 541/5/6 542/5/6 551/5/6
f 551/5/6 542/5/6 552/5/6
f 543/5/6 544/5/6 553/5/6
f 553/5/6 544/5/6 554/5/6
f 545/5/6 546/5/6 555/5/6
f 555/5/6 546/5/6 556/5/6
f 547/5/6 548/5/6 557/5/6
f 557/5/6 548/5/6 558/5/6
f 559/5/6 560/5/6 569/5/6
f 569/5/6 560/5/6 570/5/6
f 561/5/6 562/5/6 571/5/6
f 571/5/6 562/5/6 572/5/6
f 563/5/6 564/5/6 573/5/6
f 573/5/6 564/5/6 574/5/6
f 565/5/6 566/5/6 575/5/6
f 575/5/6 566/5/6 576/5/6
f 567/5/6 568/5/6 577/5/6
f 577/5/6 568/5/6 578/5/6
f 579/5/6 580/5/6 589/5/6
f 589/5/6 580/5/6 590/5/6
f 581/5/6 582/5/6 591/5/6
f 591/5/6 582/5/6 592/5/6
f 583/5/6 584/5/6 593/5/6
f 593/5/6 584/5/6 594/5/6
f 585/5/6 586/5/6 595/5/6
f 595/5/6 586/5/6 596/5/6
f 587/5/6 588/5/6 597/5/6
f 597/5/6 588/5/6 598/5/6
f 599/5/6 600/5/6 609/5/6
f 609/5/6 600/5/6 610/5/6
f 601/5/6 602/5/6 611/5/6
f 611/5/6 602/5/6 612/5/6
f 603/5/6 604/5/6 613/5/6
f 613/5/6 604/5/6 614/5/6
f 605/5/6 606/5/6 615/5/6
f 615/5/6 606/5/6 616/5/6
f 607/5/6 608/5/6 617/5/6
f 617/5/6 608/5/6 618/5/6
f 619/5/6 620/5/6 621/5/6
f 621/5/6 620/5/6 622/5/6
f 621/3/6 622/3/6 623/3/6
f 623/3/6 622/3/6 624/3/6
f 621/3/6 623/3/6 625/3/6
f 624/3/6 622/3/6 626/3/6
f 621/3/6 625/3/6 627/3/6
f 625/3/6 626/3/6 627/3/6
f 627/3/6 626/3/6 628/3/6
f 621/3/6 627/3/6 629/3/6
f 628/3/6 626/3/6 630/3/6
f 619/5/6 621/5/6 631/5/6
f 629/3/6 630/3/6 631/3/6
f 621/3/6 629/3/6 631/3/6
f 630/3/6 626/3/6 632/3/6
f 631/3/6 630/3/6 632/3/6
f 622/5/6 620/5/6 632/5/6
f 626/3/6 622/3/6 632/3/6
f 619/5/6 631/5/6 633/5/6
f 631/5/6 632/5/6 633/5/6
f 632/5/6 620/5/6 634/5/6
f 633/5/6 632/5/6 634/5/6
f 635/4/6 636/4/6 637/4/6
f 637/4/6 636/4/6 638/4/6
f 638/4/6 636/4/6 639/4/6
f 639/4/6 636/4/6 640/4/6
f 641/4/6 642/4/6 643/4/6
f 641/4/6 643/4/6 645/4/6
f 643/4/6 644/4/6 645/4/6
f 645/4/6 644/4/6 646/4/6
f 647/4/6 648/4/6 649/4/6
f 649/4/6 648/4/6 650/4/6
f 651/4/6 652/4/6 653/4/6
f 651/4/6 653/4/6 655/4/6
f 653/4/6 654/4/6 655/4/6
f 655/4/6 654/4/6 656/4/6
f 657/4/6 658/4/6 659/4/6
f 659/4/6 658/4/6 660/4/6
f 660/4/6 658/4/6 661/4/6
f 661/4/6 658/4/6 662/4/6
f 663/1/6 664/1/6 665/1/6
f 665/1/6 664/1/6 666/1/6
f 667/1/6 668/1/6 669/1/6
f 669/1/6 668/1/6 670/1/6
