# MagicaVoxel @ Ephtracy

# group
o 

# material
mtllib Level_2_Street_Two_Way.vox.mtl
usemtl palette

# normals
vn -1 0 0
vn 1 0 0
vn 0 0 1
vn 0 0 -1
vn 0 -1 0
vn 0 1 0

# texcoords
vt 0.00585938 0.5
vt 0.0136719 0.5
vt 0.134766 0.5
vt 0.216797 0.5

# verts
v -2 0 1.9
v -2 0 1.5
v -2 0 0.4
v -2 0 0.3
v -2 0 0.2
v -2 0 0.1
v -2 0 -1
v -2 0 -1.4
v -2 0.1 1.9
v -2 0.1 1.5
v -2 0.1 0.4
v -2 0.1 0.3
v -2 0.1 0.2
v -2 0.1 0.1
v -2 0.1 -1
v -2 0.1 -1.4
v 2 0 1.9
v 2 0 1.5
v 2 0 0.4
v 2 0 0.3
v 2 0 0.2
v 2 0 0.1
v 2 0 -0.4
v 2 0 -0.5
v 2 0 -1
v 2 0 -1.4
v 2 0.1 1.9
v 2 0.1 1.5
v 2 0.1 0.4
v 2 0.1 0.3
v 2 0.1 0.2
v 2 0.1 0.1
v 2 0.1 -0.4
v 2 0.1 -0.5
v 2 0.1 -1
v 2 0.1 -1.4
v -2 0 1.9
v -2 0.1 1.9
v 2 0 1.9
v 2 0.1 1.9
v -2 0 -1.4
v -2 0.1 -1.4
v 2 0 -1.4
v 2 0.1 -1.4
v -2 0 1.9
v 2 0 1.9
v -2 0 1.5
v 2 0 1.5
v -1.9 0 1
v -1.6 0 1
v -1.4 0 1
v -1.1 0 1
v -0.9 0 1
v -0.6 0 1
v -0.4 0 1
v -0.0999999 0 1
v 0.1 0 1
v 0.4 0 1
v 0.6 0 1
v 0.9 0 1
v 1.1 0 1
v 1.4 0 1
v 1.6 0 1
v 1.9 0 1
v -1.9 0 0.9
v -1.6 0 0.9
v -1.4 0 0.9
v -1.1 0 0.9
v -0.9 0 0.9
v -0.6 0 0.9
v -0.4 0 0.9
v -0.0999999 0 0.9
v 0.1 0 0.9
v 0.4 0 0.9
v 0.6 0 0.9
v 0.9 0 0.9
v 1.1 0 0.9
v 1.4 0 0.9
v 1.6 0 0.9
v 1.9 0 0.9
v -2 0 0.4
v 2 0 0.4
v -2 0 0.3
v 2 0 0.3
v -2 0 0.2
v 2 0 0.2
v -2 0 0.1
v 2 0 0.1
v -1.8 0 -0.4
v -1.5 0 -0.4
v -1.3 0 -0.4
v -1 0 -0.4
v -0.8 0 -0.4
v -0.5 0 -0.4
v -0.3 0 -0.4
v 2.38419e-07 0 -0.4
v 0.2 0 -0.4
v 0.5 0 -0.4
v 0.7 0 -0.4
v 1 0 -0.4
v 1.2 0 -0.4
v 1.5 0 -0.4
v 1.7 0 -0.4
v 2 0 -0.4
v -1.8 0 -0.5
v -1.5 0 -0.5
v -1.3 0 -0.5
v -1 0 -0.5
v -0.8 0 -0.5
v -0.5 0 -0.5
v -0.3 0 -0.5
v 2.38419e-07 0 -0.5
v 0.2 0 -0.5
v 0.5 0 -0.5
v 0.7 0 -0.5
v 1 0 -0.5
v 1.2 0 -0.5
v 1.5 0 -0.5
v 1.7 0 -0.5
v 2 0 -0.5
v -2 0 -1
v 2 0 -1
v -2 0 -1.4
v 2 0 -1.4
v -2 0.1 1.9
v 2 0.1 1.9
v -2 0.1 1.5
v 2 0.1 1.5
v -1.9 0.1 1
v -1.6 0.1 1
v -1.4 0.1 1
v -1.1 0.1 1
v -0.9 0.1 1
v -0.6 0.1 1
v -0.4 0.1 1
v -0.0999999 0.1 1
v 0.1 0.1 1
v 0.4 0.1 1
v 0.6 0.1 1
v 0.9 0.1 1
v 1.1 0.1 1
v 1.4 0.1 1
v 1.6 0.1 1
v 1.9 0.1 1
v -1.9 0.1 0.9
v -1.6 0.1 0.9
v -1.4 0.1 0.9
v -1.1 0.1 0.9
v -0.9 0.1 0.9
v -0.6 0.1 0.9
v -0.4 0.1 0.9
v -0.0999999 0.1 0.9
v 0.1 0.1 0.9
v 0.4 0.1 0.9
v 0.6 0.1 0.9
v 0.9 0.1 0.9
v 1.1 0.1 0.9
v 1.4 0.1 0.9
v 1.6 0.1 0.9
v 1.9 0.1 0.9
v -2 0.1 0.4
v 2 0.1 0.4
v -2 0.1 0.3
v 2 0.1 0.3
v -2 0.1 0.2
v 2 0.1 0.2
v -2 0.1 0.1
v 2 0.1 0.1
v -1.8 0.1 -0.4
v -1.5 0.1 -0.4
v -1.3 0.1 -0.4
v -1 0.1 -0.4
v -0.8 0.1 -0.4
v -0.5 0.1 -0.4
v -0.3 0.1 -0.4
v 2.38419e-07 0.1 -0.4
v 0.2 0.1 -0.4
v 0.5 0.1 -0.4
v 0.7 0.1 -0.4
v 1 0.1 -0.4
v 1.2 0.1 -0.4
v 1.5 0.1 -0.4
v 1.7 0.1 -0.4
v 2 0.1 -0.4
v -1.8 0.1 -0.5
v -1.5 0.1 -0.5
v -1.3 0.1 -0.5
v -1 0.1 -0.5
v -0.8 0.1 -0.5
v -0.5 0.1 -0.5
v -0.3 0.1 -0.5
v 2.38419e-07 0.1 -0.5
v 0.2 0.1 -0.5
v 0.5 0.1 -0.5
v 0.7 0.1 -0.5
v 1 0.1 -0.5
v 1.2 0.1 -0.5
v 1.5 0.1 -0.5
v 1.7 0.1 -0.5
v 2 0.1 -0.5
v -2 0.1 -1
v 2 0.1 -1
v -2 0.1 -1.4
v 2 0.1 -1.4

# faces
f 9/2/1 2/2/1 1/2/1
f 10/4/1 3/4/1 2/4/1
f 10/2/1 2/2/1 9/2/1
f 11/3/1 4/3/1 3/3/1
f 11/4/1 3/4/1 10/4/1
f 12/4/1 5/4/1 4/4/1
f 12/3/1 4/3/1 11/3/1
f 13/3/1 6/3/1 5/3/1
f 13/4/1 5/4/1 12/4/1
f 14/4/1 7/4/1 6/4/1
f 14/3/1 6/3/1 13/3/1
f 15/2/1 8/2/1 7/2/1
f 15/4/1 7/4/1 14/4/1
f 16/2/1 8/2/1 15/2/1
f 17/2/2 18/2/2 27/2/2
f 18/4/2 19/4/2 28/4/2
f 27/2/2 18/2/2 28/2/2
f 19/3/2 20/3/2 29/3/2
f 28/4/2 19/4/2 29/4/2
f 20/4/2 21/4/2 30/4/2
f 29/3/2 20/3/2 30/3/2
f 21/3/2 22/3/2 31/3/2
f 30/4/2 21/4/2 31/4/2
f 22/4/2 23/4/2 32/4/2
f 31/3/2 22/3/2 32/3/2
f 23/1/2 24/1/2 33/1/2
f 32/4/2 23/4/2 33/4/2
f 24/4/2 25/4/2 34/4/2
f 33/1/2 24/1/2 34/1/2
f 25/2/2 26/2/2 35/2/2
f 34/4/2 25/4/2 35/4/2
f 35/2/2 26/2/2 36/2/2
f 39/2/3 38/2/3 37/2/3
f 40/2/3 38/2/3 39/2/3
f 41/2/4 42/2/4 43/2/4
f 43/2/4 42/2/4 44/2/4
f 47/2/5 46/2/5 45/2/5
f 48/2/5 46/2/5 47/2/5
f 49/4/5 48/4/5 47/4/5
f 50/4/5 48/4/5 49/4/5
f 51/4/5 48/4/5 50/4/5
f 52/4/5 48/4/5 51/4/5
f 53/4/5 48/4/5 52/4/5
f 54/4/5 48/4/5 53/4/5
f 55/4/5 48/4/5 54/4/5
f 56/4/5 48/4/5 55/4/5
f 57/4/5 48/4/5 56/4/5
f 58/4/5 48/4/5 57/4/5
f 59/4/5 48/4/5 58/4/5
f 60/4/5 48/4/5 59/4/5
f 61/4/5 48/4/5 60/4/5
f 62/4/5 48/4/5 61/4/5
f 63/4/5 48/4/5 62/4/5
f 64/4/5 48/4/5 63/4/5
f 65/4/5 49/4/5 47/4/5
f 65/1/5 50/1/5 49/1/5
f 66/4/5 51/4/5 50/4/5
f 66/1/5 50/1/5 65/1/5
f 67/1/5 52/1/5 51/1/5
f 67/4/5 51/4/5 66/4/5
f 68/4/5 53/4/5 52/4/5
f 68/1/5 52/1/5 67/1/5
f 69/1/5 54/1/5 53/1/5
f 69/4/5 53/4/5 68/4/5
f 70/4/5 55/4/5 54/4/5
f 70/1/5 54/1/5 69/1/5
f 71/1/5 56/1/5 55/1/5
f 71/4/5 55/4/5 70/4/5
f 72/4/5 57/4/5 56/4/5
f 72/1/5 56/1/5 71/1/5
f 73/1/5 58/1/5 57/1/5
f 73/4/5 57/4/5 72/4/5
f 74/4/5 59/4/5 58/4/5
f 74/1/5 58/1/5 73/1/5
f 75/1/5 60/1/5 59/1/5
f 75/4/5 59/4/5 74/4/5
f 76/4/5 61/4/5 60/4/5
f 76/1/5 60/1/5 75/1/5
f 77/1/5 62/1/5 61/1/5
f 77/4/5 61/4/5 76/4/5
f 78/4/5 63/4/5 62/4/5
f 78/1/5 62/1/5 77/1/5
f 79/1/5 64/1/5 63/1/5
f 79/4/5 63/4/5 78/4/5
f 80/4/5 48/4/5 64/4/5
f 80/1/5 64/1/5 79/1/5
f 81/4/5 79/4/5 78/4/5
f 81/4/5 78/4/5 77/4/5
f 81/4/5 80/4/5 79/4/5
f 81/4/5 77/4/5 76/4/5
f 81/4/5 76/4/5 75/4/5
f 81/4/5 75/4/5 74/4/5
f 81/4/5 74/4/5 73/4/5
f 81/4/5 73/4/5 72/4/5
f 81/4/5 72/4/5 71/4/5
f 81/4/5 71/4/5 70/4/5
f 81/4/5 70/4/5 69/4/5
f 81/4/5 69/4/5 68/4/5
f 81/4/5 68/4/5 67/4/5
f 81/4/5 67/4/5 66/4/5
f 81/4/5 66/4/5 65/4/5
f 81/4/5 65/4/5 47/4/5
f 82/4/5 48/4/5 80/4/5
f 82/4/5 80/4/5 81/4/5
f 83/3/5 82/3/5 81/3/5
f 84/3/5 82/3/5 83/3/5
f 85/4/5 84/4/5 83/4/5
f 86/4/5 84/4/5 85/4/5
f 87/3/5 86/3/5 85/3/5
f 88/3/5 86/3/5 87/3/5
f 89/4/5 88/4/5 87/4/5
f 90/4/5 88/4/5 89/4/5
f 91/4/5 88/4/5 90/4/5
f 92/4/5 88/4/5 91/4/5
f 93/4/5 88/4/5 92/4/5
f 94/4/5 88/4/5 93/4/5
f 95/4/5 88/4/5 94/4/5
f 96/4/5 88/4/5 95/4/5
f 97/4/5 88/4/5 96/4/5
f 98/4/5 88/4/5 97/4/5
f 99/4/5 88/4/5 98/4/5
f 100/4/5 88/4/5 99/4/5
f 101/4/5 88/4/5 100/4/5
f 102/4/5 88/4/5 101/4/5
f 103/4/5 88/4/5 102/4/5
f 104/4/5 88/4/5 103/4/5
f 105/4/5 89/4/5 87/4/5
f 105/1/5 90/1/5 89/1/5
f 106/4/5 91/4/5 90/4/5
f 106/1/5 90/1/5 105/1/5
f 107/1/5 92/1/5 91/1/5
f 107/4/5 91/4/5 106/4/5
f 108/4/5 93/4/5 92/4/5
f 108/1/5 92/1/5 107/1/5
f 109/1/5 94/1/5 93/1/5
f 109/4/5 93/4/5 108/4/5
f 110/4/5 95/4/5 94/4/5
f 110/1/5 94/1/5 109/1/5
f 111/1/5 96/1/5 95/1/5
f 111/4/5 95/4/5 110/4/5
f 112/4/5 97/4/5 96/4/5
f 112/1/5 96/1/5 111/1/5
f 113/1/5 98/1/5 97/1/5
f 113/4/5 97/4/5 112/4/5
f 114/4/5 99/4/5 98/4/5
f 114/1/5 98/1/5 113/1/5
f 115/1/5 100/1/5 99/1/5
f 115/4/5 99/4/5 114/4/5
f 116/4/5 101/4/5 100/4/5
f 116/1/5 100/1/5 115/1/5
f 117/1/5 102/1/5 101/1/5
f 117/4/5 101/4/5 116/4/5
f 118/4/5 103/4/5 102/4/5
f 118/1/5 102/1/5 117/1/5
f 119/1/5 104/1/5 103/1/5
f 119/4/5 103/4/5 118/4/5
f 120/1/5 104/1/5 119/1/5
f 121/4/5 118/4/5 117/4/5
f 121/4/5 105/4/5 87/4/5
f 121/4/5 120/4/5 119/4/5
f 121/4/5 119/4/5 118/4/5
f 121/4/5 117/4/5 116/4/5
f 121/4/5 116/4/5 115/4/5
f 121/4/5 115/4/5 114/4/5
f 121/4/5 114/4/5 113/4/5
f 121/4/5 113/4/5 112/4/5
f 121/4/5 112/4/5 111/4/5
f 121/4/5 111/4/5 110/4/5
f 121/4/5 110/4/5 109/4/5
f 121/4/5 109/4/5 108/4/5
f 121/4/5 108/4/5 107/4/5
f 121/4/5 107/4/5 106/4/5
f 121/4/5 106/4/5 105/4/5
f 122/4/5 120/4/5 121/4/5
f 123/2/5 122/2/5 121/2/5
f 124/2/5 122/2/5 123/2/5
f 125/2/6 126/2/6 127/2/6
f 127/2/6 126/2/6 128/2/6
f 127/4/6 128/4/6 129/4/6
f 129/4/6 128/4/6 130/4/6
f 130/4/6 128/4/6 131/4/6
f 131/4/6 128/4/6 132/4/6
f 132/4/6 128/4/6 133/4/6
f 133/4/6 128/4/6 134/4/6
f 134/4/6 128/4/6 135/4/6
f 135/4/6 128/4/6 136/4/6
f 136/4/6 128/4/6 137/4/6
f 137/4/6 128/4/6 138/4/6
f 138/4/6 128/4/6 139/4/6
f 139/4/6 128/4/6 140/4/6
f 140/4/6 128/4/6 141/4/6
f 141/4/6 128/4/6 142/4/6
f 142/4/6 128/4/6 143/4/6
f 143/4/6 128/4/6 144/4/6
f 127/4/6 129/4/6 145/4/6
f 129/1/6 130/1/6 145/1/6
f 130/4/6 131/4/6 146/4/6
f 145/1/6 130/1/6 146/1/6
f 131/1/6 132/1/6 147/1/6
f 146/4/6 131/4/6 147/4/6
f 132/4/6 133/4/6 148/4/6
f 147/1/6 132/1/6 148/1/6
f 133/1/6 134/1/6 149/1/6
f 148/4/6 133/4/6 149/4/6
f 134/4/6 135/4/6 150/4/6
f 149/1/6 134/1/6 150/1/6
f 135/1/6 136/1/6 151/1/6
f 150/4/6 135/4/6 151/4/6
f 136/4/6 137/4/6 152/4/6
f 151/1/6 136/1/6 152/1/6
f 137/1/6 138/1/6 153/1/6
f 152/4/6 137/4/6 153/4/6
f 138/4/6 139/4/6 154/4/6
f 153/1/6 138/1/6 154/1/6
f 139/1/6 140/1/6 155/1/6
f 154/4/6 139/4/6 155/4/6
f 140/4/6 141/4/6 156/4/6
f 155/1/6 140/1/6 156/1/6
f 141/1/6 142/1/6 157/1/6
f 156/4/6 141/4/6 157/4/6
f 142/4/6 143/4/6 158/4/6
f 157/1/6 142/1/6 158/1/6
f 143/1/6 144/1/6 159/1/6
f 158/4/6 143/4/6 159/4/6
f 144/4/6 128/4/6 160/4/6
f 159/1/6 144/1/6 160/1/6
f 158/4/6 159/4/6 161/4/6
f 157/4/6 158/4/6 161/4/6
f 159/4/6 160/4/6 161/4/6
f 156/4/6 157/4/6 161/4/6
f 155/4/6 156/4/6 161/4/6
f 154/4/6 155/4/6 161/4/6
f 153/4/6 154/4/6 161/4/6
f 152/4/6 153/4/6 161/4/6
f 151/4/6 152/4/6 161/4/6
f 150/4/6 151/4/6 161/4/6
f 149/4/6 150/4/6 161/4/6
f 148/4/6 149/4/6 161/4/6
f 147/4/6 148/4/6 161/4/6
f 146/4/6 147/4/6 161/4/6
f 145/4/6 146/4/6 161/4/6
f 127/4/6 145/4/6 161/4/6
f 160/4/6 128/4/6 162/4/6
f 161/4/6 160/4/6 162/4/6
f 161/3/6 162/3/6 163/3/6
f 163/3/6 162/3/6 164/3/6
f 163/4/6 164/4/6 165/4/6
f 165/4/6 164/4/6 166/4/6
f 165/3/6 166/3/6 167/3/6
f 167/3/6 166/3/6 168/3/6
f 167/4/6 168/4/6 169/4/6
f 169/4/6 168/4/6 170/4/6
f 170/4/6 168/4/6 171/4/6
f 171/4/6 168/4/6 172/4/6
f 172/4/6 168/4/6 173/4/6
f 173/4/6 168/4/6 174/4/6
f 174/4/6 168/4/6 175/4/6
f 175/4/6 168/4/6 176/4/6
f 176/4/6 168/4/6 177/4/6
f 177/4/6 168/4/6 178/4/6
f 178/4/6 168/4/6 179/4/6
f 179/4/6 168/4/6 180/4/6
f 180/4/6 168/4/6 181/4/6
f 181/4/6 168/4/6 182/4/6
f 182/4/6 168/4/6 183/4/6
f 183/4/6 168/4/6 184/4/6
f 167/4/6 169/4/6 185/4/6
f 169/1/6 170/1/6 185/1/6
f 170/4/6 171/4/6 186/4/6
f 185/1/6 170/1/6 186/1/6
f 171/1/6 172/1/6 187/1/6
f 186/4/6 171/4/6 187/4/6
f 172/4/6 173/4/6 188/4/6
f 187/1/6 172/1/6 188/1/6
f 173/1/6 174/1/6 189/1/6
f 188/4/6 173/4/6 189/4/6
f 174/4/6 175/4/6 190/4/6
f 189/1/6 174/1/6 190/1/6
f 175/1/6 176/1/6 191/1/6
f 190/4/6 175/4/6 191/4/6
f 176/4/6 177/4/6 192/4/6
f 191/1/6 176/1/6 192/1/6
f 177/1/6 178/1/6 193/1/6
f 192/4/6 177/4/6 193/4/6
f 178/4/6 179/4/6 194/4/6
f 193/1/6 178/1/6 194/1/6
f 179/1/6 180/1/6 195/1/6
f 194/4/6 179/4/6 195/4/6
f 180/4/6 181/4/6 196/4/6
f 195/1/6 180/1/6 196/1/6
f 181/1/6 182/1/6 197/1/6
f 196/4/6 181/4/6 197/4/6
f 182/4/6 183/4/6 198/4/6
f 197/1/6 182/1/6 198/1/6
f 183/1/6 184/1/6 199/1/6
f 198/4/6 183/4/6 199/4/6
f 199/1/6 184/1/6 200/1/6
f 197/4/6 198/4/6 201/4/6
f 167/4/6 185/4/6 201/4/6
f 199/4/6 200/4/6 201/4/6
f 198/4/6 199/4/6 201/4/6
f 196/4/6 197/4/6 201/4/6
f 195/4/6 196/4/6 201/4/6
f 194/4/6 195/4/6 201/4/6
f 193/4/6 194/4/6 201/4/6
f 192/4/6 193/4/6 201/4/6
f 191/4/6 192/4/6 201/4/6
f 190/4/6 191/4/6 201/4/6
f 189/4/6 190/4/6 201/4/6
f 188/4/6 189/4/6 201/4/6
f 187/4/6 188/4/6 201/4/6
f 186/4/6 187/4/6 201/4/6
f 185/4/6 186/4/6 201/4/6
f 201/4/6 200/4/6 202/4/6
f 201/2/6 202/2/6 203/2/6
f 203/2/6 202/2/6 204/2/6
